<?xml version="1.0" encoding="utf-8"?>
<!-- Generator: Adobe Illustrator 25.0.0, SVG Export Plug-In . SVG Version: 6.00 Build 0)  -->
<svg version="1.1" id="Layer_1" xmlns="http://www.w3.org/2000/svg" xmlns:xlink="http://www.w3.org/1999/xlink" x="0px" y="0px"
	 viewBox="0 0 1920 1080" style="enable-background:new 0 0 1920 1080;" xml:space="preserve">
<style type="text/css">
	.st0{fill:#F0F0F0;}
	.st1{fill:#22ACE6;}
	.st2{fill:#32326F;}
	.st3{fill:#2A81C9;}
	.st4{fill:#242446;}
	.st5{fill:#DADADA;}
	.st6{fill:#38ACE6;}
	.st7{fill:#4FB4E8;}
	.st8{fill:#48B0E7;}
	.st9{fill:#4AB3E8;}
	.st10{fill:#34ACE6;}
	.st11{fill:#CEDCF4;}
	.st12{fill:#39ACE6;}
	.st13{fill:#E2ECF8;}
	.st14{fill:#F3F7FC;}
	.st15{fill:#62B2E9;}
	.st16{fill:#7EB2E8;}
	.st17{fill:#52ADE6;}
	.st18{fill:#E2EEFA;}
	.st19{fill:#FCFEFE;}
	.st20{fill:#2DACE6;}
	.st21{fill:#E9F1FA;}
	.st22{fill:#D4E7F8;}
	.st23{fill:#55B3E8;}
	.st24{fill:#E3EBF8;}
	.st25{fill:#1E5585;}
	.st26{fill:#00204C;}
	.st27{fill:#0C2751;}
	.st28{fill:#2A4A6E;}
	.st29{fill:#10365D;}
	.st30{fill:#0E4A7D;}
	.st31{fill:#244065;}
	.st32{fill:#205786;}
	.st33{fill:#376792;}
	.st34{fill:#001C48;}
	.st35{fill:#0C487D;}
	.st36{fill:#001946;}
	.st37{fill:#EAECED;}
	.st38{fill:#001A48;}
	.st39{fill:#C6D1DB;}
	.st40{fill:#0D487C;}
	.st41{fill:#7192AF;}
	.st42{fill:#1E3B62;}
	.st43{fill:#3C6C95;}
	.st44{fill:#33658F;}
	.st45{fill:#2B486C;}
	.st46{fill:#13288A;}
	.st47{fill:#233792;}
	.st48{fill:#293C95;}
	.st49{fill:#223792;}
	.st50{fill:#263993;}
	.st51{fill:#122789;}
	.st52{fill:#071E84;}
	.st53{fill:#F0980B;}
	.st54{fill:#001881;}
	.st55{fill:#3F519F;}
	.st56{fill:#D49534;}
	.st57{fill:#FEFEFE;}
	.st58{fill:#0B2086;}
	.st59{fill:#2A3E96;}
	.st60{fill:#12278A;}
	.st61{fill:#33ADE6;}
	.st62{fill:#FBFCFE;}
	.st63{fill:#F2F7FC;}
	.st64{fill:#F8FBFD;}
	.st65{fill:#F6F9FD;}
	.st66{fill:#C9DBF3;}
	.st67{fill:#D7E6F7;}
	.st68{fill:#EBF2FA;}
	.st69{fill:#E5EEF9;}
	.st70{fill:#F4F7FC;}
	.st71{fill:#E7EEF9;}
	.st72{fill:#E2F0FB;}
	.st73{fill:#FCFCFE;}
	.st74{fill:#D8E5F6;}
	.st75{fill:#D7E8F8;}
	.st76{fill:#EDF2FA;}
	.st77{fill:#D1E0F5;}
	.st78{fill:#E9F0F9;}
	.st79{fill:#F2F6FC;}
	.st80{fill:#E61818;}
	.st81{fill:#0191C5;}
	.st82{fill:#FD9801;}
	.st83{fill:#CA0101;}
	.st84{fill:#D4E4F6;}
	.st85{fill:#A7C7ED;}
	.st86{fill:#93BCEB;}
	.st87{fill:#E7EFF9;}
	.st88{fill:#D7E5F6;}
	.st89{fill:#5CB2E7;}
	.st90{fill:#B1CBEE;}
	.st91{fill:#B5CDEE;}
	.st92{fill:#63B4EA;}
	.st93{fill:#E5F1FB;}
	.st94{fill:#54ACE8;}
	.st95{fill:#CED7DF;}
	.st96{fill:#869AAC;}
	.st97{fill:#5E7B93;}
	.st98{fill:#D1D8DD;}
	.st99{fill:#D0D4E5;}
	.st100{fill:#3D4E9F;}
	.st101{fill:#DBE8F7;}
	.st102{fill:#4BAFE7;}
	.st103{fill:#90C5ED;}
	.st104{fill:#43AEE7;}
	.st105{fill:#A6C5EC;}
	.st106{fill:#4EACE6;}
	.st107{fill:#C8E1F7;}
	.st108{fill:#57B4E9;}
	.st109{fill:#76B6EB;}
	.st110{fill:#4CACE6;}
	.st111{fill:#61B0E8;}
	.st112{fill:#C0DDF6;}
	.st113{fill:#7DB1E7;}
	.st114{fill:#4AACE6;}
	.st115{fill:#72B7ED;}
	.st116{fill:#37ACE6;}
	.st117{fill:#3EACE6;}
	.st118{fill:#30ACE6;}
	.st119{fill:#DCE6EE;}
	.st120{fill:#EFEAED;}
	.st121{fill:#E5DCE2;}
	.st122{fill:#DACED6;}
	.st123{fill:#9E394F;}
	.st124{fill:#D0C9D2;}
	.st125{fill:#F8FEFE;}
	.st126{fill:#BAD6E5;}
	.st127{fill:#0D699D;}
	.st128{fill:#F6FEFE;}
	.st129{fill:#0F89BA;}
	.st130{fill:#F6F7F9;}
	.st131{fill:#C4DCE9;}
	.st132{fill:#E2E9EF;}
	.st133{fill:#DDD9E1;}
	.st134{fill:#FDFEFE;}
	.st135{fill:#DFEFF5;}
	.st136{fill:#C6D9E5;}
	.st137{fill:#1D71A2;}
	.st138{fill:#EBE4DD;}
	.st139{fill:#D3CDD3;}
	.st140{fill:#EE961B;}
	.st141{fill:#ECE1E7;}
	.st142{fill:#E3B073;}
	.st143{fill:#EEEEF2;}
	.st144{fill:#C0BCCE;}
	.st145{fill:#F88500;}
	.st146{fill:#D8E3FE;}
	.st147{fill:#F7F5EA;}
	.st148{fill:#A09CC2;}
	.st149{fill:#CE0A00;}
	.st150{fill:#CED1E7;}
	.st151{fill:#C4CCEE;}
	.st152{fill:#CEB6C6;}
	.st153{fill:#D8C9D6;}
	.st154{fill:#FAE4E1;}
	.st155{fill:#D9B8C4;}
	.st156{fill:#D2CFE0;}
	.st157{fill:#F6DBDB;}
	.st158{fill:#800024;}
	.st159{fill:#75416A;}
	.st160{fill:#D7E2F7;}
	.st161{fill:#A4526A;}
	.st162{fill:#4F2A6E;}
	.st163{fill:#C67684;}
	.st164{fill:#7AC1DC;}
	.st165{fill:#E47A7C;}
	.st166{fill:#F9F7F8;}
	.st167{fill:#BCDBE9;}
	.st168{fill:#FBFAFB;}
	.st169{fill:#CAE7F1;}
	.st170{fill:#166E9F;}
	.st171{fill:#CF322D;}
	.st172{fill:#E3D0B8;}
	.st173{fill:#C5B2C7;}
	.st174{fill:#FE9800;}
	.st175{fill:#DCE6FE;}
	.st176{fill:#B78457;}
	.st177{fill:#6E6399;}
	.st178{fill:#E8F7FE;}
	.st179{fill:#884C76;}
	.st180{fill:#7C042E;}
	.st181{fill:#FDE3E1;}
	.st182{fill:#C1CFE8;}
	.st183{fill:#946387;}
	.st184{fill:#E9D6DC;}
</style>
<g>
	<g>
		<path class="st0" d="M1340.04,422.31c-5.28-4.54-3.27-10.69-3.3-16.2c-0.15-35.1,0.44-70.21-0.33-105.3
			c-0.31-14.44,3.48-20.62,19.31-20.43c61.13,0.75,122.28,0.62,183.42,0.07c14-0.13,19.64,3.96,19.32,18.64
			c-0.79,36.24-0.21,72.5-0.3,108.75c-0.01,5,1.51,10.51-3.34,14.47C1483.23,422.23,1411.64,422.22,1340.04,422.31z"/>
		<path class="st0" d="M315.43,422.31c-4.84-3.96-3.32-9.47-3.33-14.47c-0.09-36.25,0.49-72.52-0.3-108.75
			c-0.32-14.67,5.32-18.76,19.32-18.63c61.14,0.55,122.28,0.55,183.42,0c14-0.13,19.64,3.96,19.32,18.64
			c-0.79,36.24-0.21,72.5-0.3,108.75c-0.01,5,1.51,10.51-3.34,14.47C458.61,422.23,387.02,422.23,315.43,422.31z"/>
		<path class="st1" d="M568.82,415.37c-0.2-18.35-0.41-36.69-0.61-55.04c-0.05-5.11-0.93-10.75,6.82-11.12
			c3.56-5.42,8.64-6.89,14.76-5.71c10.04,2.65,20.28,1.31,30.45,1.5c2.89-0.09,5.77-0.05,8.67-0.04c13.86,0.07,27.7,0.05,41.55-0.03
			c3.85-0.15,7.7-0.31,11.54-0.14c8.2,0.54,16.43,0.21,24.63,0.37c5.78,0.12,11.6,0.68,17.34-0.62c1.52-0.49,3.09-0.84,4.67-1.11
			c3.13-0.49,6.23-0.3,9.3,0.42c4.95,1.46,9.98,2.27,15.17,1.51c2.16-0.37,4.33-0.69,6.51-0.85c4.71-0.32,9.97,2.36,13.78-2.65
			c0.7-8.39,7.51-18.65-7.07-22.07c-4-0.15-7.87,0.66-11.74,1.6c-2.55,0.51-5.11,0.6-7.69,0.32c-4.47-0.86-8.9-1.87-13.51-1.68
			c-15.84-0.1-31.66,0.01-47.49,0.05c-21.09,0.56-42.23-1.51-63.26,1.27c-2.84,0.63-5.71,0.71-8.59,0.38
			c-11.39-2.99-23.06-1.58-34.62-1.98c-2.64,0.04-5.19-0.6-7.77-1.03c-7.32-9.15-3.13-19.64-2.64-29.36
			c0.4-7.85,7.78-8.67,14.52-8.66c63.34,0.04,126.68,0.17,190.02-0.11c11.94-0.05,16.59,4.9,16.29,16.53
			c-0.43,16.65-0.81,33.35,0.14,49.96c0.63,11.03-3.44,13.38-13.74,13.28c-47.21-0.5-94.43-0.42-141.65-0.13
			c-23.8,0.15-21.1-4.75-21.36,22.26c-0.03,2.85,0.41,5.71,0.63,8.57c10.49-0.79,21.05-0.35,31.47-1.98
			c5.36-1.19,10.79,0.4,16.16-0.43c1.48-0.21,2.98-0.3,4.47-0.36c7.52,1.33,12.26-9.14,20.49-4.86c3.06,3.08,5.51,7.15,10.83,6.6
			c5.26,0.08,10.48-0.26,15.73-0.15c15.26,0.01,30.49-0.01,45.73-0.07c10.38,1.05,21.61-2.86,30.78,5.22
			c-0.13,6.79-0.26,13.58-0.39,20.38c-3.85,7.91-11.24,6.82-18,6.83c-61.44,0.09-122.87,0.09-184.31,0
			C580.05,422.2,572.66,423.29,568.82,415.37z"/>
		<path class="st2" d="M1084.11,421.76c-5.31-2.9-3.54-7.99-3.55-12.31c-0.1-36.77,0.43-73.54-0.28-110.29
			c-0.28-14.61,5.53-18.81,19.45-18.69c61.03,0.51,122.08,0.52,183.11,0c13.96-0.12,19.72,4.18,19.45,18.73
			c-0.69,36.75-0.17,73.53-0.28,110.29c-0.01,4.32,1.78,9.41-3.56,12.29C1227,422.57,1155.56,422.61,1084.11,421.76z"/>
		<path class="st2" d="M827.96,421.76c-5.31-2.9-3.54-7.99-3.55-12.3c-0.1-36.76,0.43-73.53-0.28-110.28
			c-0.28-14.58,5.48-18.83,19.42-18.71c61.02,0.51,122.06,0.51,183.08,0c13.9-0.12,19.78,4.07,19.5,18.67
			c-0.69,36.75-0.18,73.52-0.27,110.28c-0.01,4.35,1.64,9.4-3.6,12.32C970.83,422.63,899.39,422.58,827.96,421.76z"/>
		<path class="st3" d="M568.82,415.37c5.03,3.38,10.69,3.5,16.49,3.49c62.44-0.06,124.88-0.06,187.32,0
			c5.8,0.01,11.46-0.12,16.5-3.48c-0.55,9.5-7.2,10.36-14.59,10.36c-63.73-0.02-127.45-0.01-191.18-0.01
			C576.02,425.73,569.26,424.98,568.82,415.37z"/>
		<path class="st4" d="M1084.11,421.76c3.64-3.99,8.49-2.9,12.98-2.91c62.8-0.05,125.6-0.05,188.39,0c4.49,0,9.34-1.09,12.97,2.93
			c-3.43,5.69-9.13,3.87-14.02,3.88c-62.1,0.11-124.2,0.11-186.3,0C1093.24,425.65,1087.55,427.42,1084.11,421.76z"/>
		<path class="st4" d="M827.96,421.76c3.64-3.99,8.48-2.9,12.97-2.91c62.78-0.05,125.57-0.05,188.35,0c4.49,0,9.33-1.1,12.98,2.88
			c-3.39,5.74-9.11,3.91-13.98,3.92c-62.1,0.11-124.2,0.11-186.3,0C837.09,425.65,831.4,427.42,827.96,421.76z"/>
		<path class="st5" d="M315.43,422.31c3.88-4.9,9.4-3.43,14.39-3.44c62-0.08,124.01-0.08,186.01,0c4.98,0.01,10.5-1.47,14.39,3.43
			c-3.99,4.65-9.45,3.37-14.46,3.38c-61.95,0.06-123.9,0.06-185.85,0C324.88,425.68,319.42,426.95,315.43,422.31z"/>
		<path class="st5" d="M1340.04,422.31c3.88-4.9,9.4-3.43,14.39-3.44c62-0.08,124.01-0.08,186.01,0c4.98,0.01,10.5-1.47,14.39,3.43
			c-3.99,4.65-9.45,3.37-14.46,3.38c-61.95,0.06-123.9,0.06-185.85,0C1349.49,425.68,1344.03,426.95,1340.04,422.31z"/>
		<path class="st6" d="M644.66,369.56c5.24,1.44,9.21-1.21,13.1-4.08c1.44,0.89,2.47,2.12,3.1,3.68c1.36,5.07,0.58,9.76-2.55,14.02
			c-1.06,1.23-2.3,2.25-3.71,3.07c-3.69,1.44-7.75,1.89-11.22,4.02c-1.59,0.44-3.21,0.68-4.85,0.76
			c-5.86-0.22-11.84,1.05-17.51-1.47c-1.49-1.1-2.32-2.57-2.51-4.4c0.78-6.94-2.02-14.17,1.76-20.85c8.09,0.23,16.69-4.1,24.06,2.64
			c-1.5,1.7-3.39,2.35-5.65,2.55c-2.28,0.2,0.4-1.28-1.48-0.05c-0.6,0.39,1.31,0.18,1.88,0.72c1.27,0.08,2.5,0.03,3.73-0.18
			C643.45,369.85,644.05,369.7,644.66,369.56z"/>
		<path class="st7" d="M692.75,363.54c6.98-0.01,13.95-0.01,20.93-0.02c9.06,5.87,8.81,13.86,5.21,22.61
			c-9.6,3.75-19.19,5.72-28.65-0.57C687.72,377.83,687.1,370.32,692.75,363.54z"/>
		<path class="st8" d="M720.81,363.71c6.74,0,13.48-0.01,20.22-0.01c4.1,3.66-0.05,8.29,1.49,12.28c-0.19,1.5-0.8,2.8-1.75,3.87
			c-8.17,4.06,5.28,3.18,1.53,6.31c-0.78,3.86-3.15,5.99-6.95,6.66c-5.69-1.55-13.91,4.07-16.6-5.87
			C719.92,379.25,716.66,371.15,720.81,363.71z"/>
		<path class="st9" d="M748.2,363.56c5.81-0.01,11.62-0.02,17.43-0.04c1.33,6.35-0.32,13.07,2.44,19.28
			c-0.49,3.75-2.45,6.33-6.02,7.67c-5.28,0.76-10.54,1.25-15.7-0.6c-2.51-1.51-2.98-3.53-1.5-5.95c1.44-1.39,4.28-2.68,0.42-4.81
			c-1.2-0.94-1.9-2.1-2.25-3.53C741.85,370.3,743.7,366.35,748.2,363.56z"/>
		<path class="st10" d="M772.47,363.58c12.88-4.04,15.29,4.34,16.66,13.96c-1.84,2.79-0.57,8.15-6.37,7.69
			c-3.99-2.41-8.52-2.69-13-3.25c-1.42-0.86-2.28-2.1-2.62-3.72C765.07,371.98,767.09,367.17,772.47,363.58z"/>
		<path class="st11" d="M762.28,387.85c3.67-1.17,3.62-4.57,4.48-7.42l1.34-0.9l1.12,1.17l0.45-0.79c0.81,1.2,1.86,2.13,3.19,2.72
			c5.54,1.58,11.18,2.76,16.59,4.73c0.02,2.55,0.04,5.09,0.06,7.64c-10.34-0.26-20.68-0.52-31.02-0.79
			c-1.09-0.85-1.46-1.92-0.99-3.25C758.85,389.55,760.78,389.03,762.28,387.85z"/>
		<path class="st12" d="M658.33,370.77c-0.19-1.76-0.38-3.52-0.57-5.29c3.97-2.61,7.77-3.41,11.08,1.03
			c2.62,4.85,7.6,6.42,12.11,8.65c1.26,0.87,2.08,2.04,2.4,3.55c-4.68,5.75-11.84,7.96-17.56,12.23c-1.68,0.16-3.36,0.32-5.03,0.48
			c-4.47-0.07-7.21-1.75-6.31-6.79l0.16-0.26C659.95,380.96,665.28,377.54,658.33,370.77z"/>
		<path class="st13" d="M692.75,363.54c-0.07,8.28-0.13,16.56-0.2,24.84c1.42,1.56,1.41,3.11-0.05,4.64
			c-7.6,2.2-5.85-4.68-7.79-7.98c1.09-2.79-0.37-5.57-0.06-8.36c0.31-4.28-1.07-8.66,0.79-12.84
			C687.89,363.73,690.32,363.63,692.75,363.54z"/>
		<path class="st14" d="M641.83,388.22c1.07-0.02,2.13-0.1,3.18-0.25c1.62-0.62,2.38-0.07,2.27,1.66
			c-10.79,8.68-22.02,6.8-33.41,1.39c0.95-1.13,1.89-2.26,2.84-3.39c1.26-1.46,2.33-1.41,3.2,0.38l0.01-0.06
			C627.2,390.54,634.5,390.11,641.83,388.22z"/>
		<path class="st15" d="M575.1,339.45c-0.24-2.41-0.47-4.82-0.71-7.22c0.57-0.69,1.13-1.38,1.69-2.09
			c7.11-4.37,13.57-5.39,18.06,3.56c0.34,3-0.63,5.46-3.02,7.34C585.49,343.49,580.09,343.45,575.1,339.45z"/>
		<path class="st7" d="M685.45,363.83c2.77,4.58,8.03,9.06,0.52,14.02c-1.16,1.11-2.23,0.98-3.23-0.22l-0.56-0.26
			c-1.97-3.38-8.04-4.05-6.5-9.76C678.79,365.95,681.31,362.8,685.45,363.83z"/>
		<path class="st16" d="M641.19,373.44c-5.23-0.35-10.47-0.7-18.01-1.2c7.24-8.18,14.9-3.81,21.16-5.27
			c0.52,0.82,0.63,1.69,0.32,2.61c0,0-0.14,0.96-0.14,0.96C643.36,371.44,642.25,372.41,641.19,373.44z"/>
		<path class="st17" d="M675.68,367.61c2.37,3.12,7.41,4.46,6.5,9.76c-7.79,0.47-15.01,0.25-13.35-10.85
			C671.12,366.88,673.4,367.25,675.68,367.61z"/>
		<path class="st18" d="M575.1,339.45c5.79,0.01,11.59,0.02,17.38,0.03c0.35,0.47,0.71,0.94,1.06,1.4c0.11,1.2-0.15,2.32-0.75,3.37
			c-1.08,1.48-2.46,2.52-4.28,2.92c-5.09-3.24-8.89,2.04-13.48,2.03C575.05,345.96,575.08,342.71,575.1,339.45z"/>
		<path class="st19" d="M769.22,380.7c-0.8-0.25-1.63-0.34-2.46-0.27c-9.24-5.05-1.97-11.19-1.13-16.91
			c2.28,0.02,4.56,0.04,6.84,0.06C767.26,368.51,768.88,374.73,769.22,380.7z"/>
		<path class="st20" d="M789.46,387.36c-6.88,0.5-14.15,4.32-20.15-2.43c4.32-4.28,8.86-4.17,13.55-0.64
			c2.09-2.25,4.18-4.5,6.27-6.75C789.24,380.82,789.35,384.09,789.46,387.36z"/>
		<path class="st21" d="M720.81,363.71c-0.31,8.03-0.63,16.07-0.94,24.1c0,0-1.29,0.97-1.29,0.97c0,0-1.27-1-1.27-1
			c-1.61-8.03,2.33-16.88-3.62-24.26C716.06,363.58,718.44,363.65,720.81,363.71z"/>
		<path class="st22" d="M571.66,318.7c1.21-0.93,2.41-1.87,3.62-2.8c2.19,1.94,4.37,3.89,4.76,7.04c0.35,4-2.19,6.76-4.2,9.75
			c0,0-1.44-0.45-1.44-0.45C566.33,329.16,572.07,323.31,571.66,318.7z"/>
		<path class="st23" d="M619.92,388.01l-1.63,0.02c0,0-1.58-0.4-1.58-0.4c1.83-7.68-3.53-16.44,3.57-23.32
			C620.16,372.22,620.04,380.12,619.92,388.01z"/>
		<path class="st24" d="M748.2,363.56c-3.23,4.02-5.15,8.3-2.64,13.45c-1.33,1.09-2.74,1.27-4.25,0.38
			c-7.71-4.4-0.28-9.13-0.29-13.69C743.42,363.65,745.81,363.61,748.2,363.56z"/>
		<path class="st25" d="M1483.17,353.81c-4.98,5.93-18.38-2.15-19.13,11.65c-0.11,2.06-6.02,1.98-6.34-1.34
			c-1.04-10.87,1.96-21.2,6.92-30.81c3.85-7.46,11.32-4.11,16.67-3.5c13.12,1.49,16.56,8.32,7.63,19.26
			c-2.78-2.08-4.97-4.98-8.44-6.06c-1.63-0.12-3.85-0.9-4.54,0.82c-1.12,2.79,1.91,3.37,3.49,4.66
			C1481.3,349.84,1482.55,351.61,1483.17,353.81z"/>
		<path class="st26" d="M1380.96,356.3c-5.7,0.4-11.89-1.26-16.47,3.87c-3.33,2.07-1.22,12.03-9.69,6.64
			c0.21-13.09,4.12-25.22,9.6-36.94c5.48,2.08,11.32,0,16.85,1.51c1.16,1.23,1.63,2.66,1.33,4.34c-0.92,4.09-11.72,4.55-4.27,11.68
			c1.83,1.45,3.34,3.14,4.35,5.25C1383.05,354.3,1382.52,355.54,1380.96,356.3z"/>
		<path class="st27" d="M1417.58,345.64c3.41,11.51,5.14,22.21-11.53,24.19c-1.94-1.29-2.31-3.22-2.22-5.35
			c0.62-3.37,0.46-6.82,1-10.22c1.92-4.03,4.62-7.35,8.59-9.54C1414.93,344.47,1416.32,344.75,1417.58,345.64z"/>
		<path class="st28" d="M1406.05,364.16c0,1.89,0,3.77,0,5.66c-6.33,1.68-13.14,6.46-17.78-2.75c-2.49-6.73-2.32-12.51,5.59-15.5
			c3.45-0.94,6.68-0.91,9.15,2.17C1403.22,357.43,1402.11,361.53,1406.05,364.16z"/>
		<path class="st29" d="M1436.69,373.83c-1.78,4.59-4.5,10.76-9.54,8.72c-7.5-3.04,1.33-6.99,1.16-10.54
			c-0.4-8.49-1.77-16.93-2.74-25.39c10.11-1.79,3.86,8.03,7.66,10.72C1440.64,361.53,1435.68,368.3,1436.69,373.83z"/>
		<path class="st30" d="M1538.08,340.34c-2.5,6.14-3.18,12.61-4.28,19.09c-1.09,6.44-5.69,10.44-9.77,0.77
			c7.68-4.1,2.98-12.39,6.12-18.02c0.26-2.06,0.52-4.13,0.78-6.19c1.32-2.72,3.58-4.99,6.36-3.23
			C1539.79,334.35,1539.12,337.64,1538.08,340.34z"/>
		<path class="st31" d="M1417.58,345.64c-1.36,0.21-2.73,0.42-4.09,0.63c-4.65,3.77-9.96,5.4-15.92,4.93c-0.65-0.5-1.29-1-1.94-1.5
			c0.42-4.25-1.24-10.55,5.61-10.13C1406.93,339.92,1415.73,334.32,1417.58,345.64z"/>
		<path class="st32" d="M1503.48,367.07c-3.84,4.72-8.86,6.18-11.39,0.03c-2.41-5.86-3.56-13.51,6.78-14.59
			c2.81-1.26,4.22,0.1,5.02,2.63C1501.04,359.01,1501.92,363.03,1503.48,367.07z"/>
		<path class="st29" d="M1439.41,356c3.28-6.36,5-19.46,12.78-14.93c6.32,3.68-4.57,13.25-7.5,20.33
			C1442.07,360.43,1440.09,358.85,1439.41,356z"/>
		<path class="st33" d="M1509.71,346.32c-3.54-2.12-8.99,2.61-12.27-4.5c8.74-2.3,17.01-7.94,22.66,4.49
			c-1.75,1.83-3.88,2.66-6.41,2.45C1512.12,348.34,1510.8,347.52,1509.71,346.32z"/>
		<path class="st34" d="M1382.36,353.45c-1.42-1.36-2.84-2.71-4.26-4.07c-2.1-4.99-0.02-8.91,3.2-12.55c0.14-1.3,0.28-2.6,0.41-3.9
			c1.84-2.53,3.8-2.43,5.84-0.25c0.65,4.57,1.3,9.14,1.95,13.7C1389.79,351.42,1387.46,353.83,1382.36,353.45z"/>
		<path class="st35" d="M1513.85,346.3c2.08,0,4.17,0.01,6.25,0.01c3.55,7.27-3.56,12.26-4.34,18.82c-0.49,4.15-5.06,2.08-7.15-1.18
			c-0.46-2.91,0.71-5.85-0.19-8.76C1509.25,351.63,1511.18,348.74,1513.85,346.3z"/>
		<path class="st36" d="M1433.68,360.07c-5.62-2.73-0.94-11.64-8.1-13.45c0.48-8.02,0.3-7.62,4.15-5.87
			c7.23,3.28,2.89,11.53,7.31,15.88C1437.92,359.72,1436.91,360.98,1433.68,360.07z"/>
		<path class="st37" d="M1382.36,353.45c2.38-2.36,4.76-4.71,7.14-7.07c2.04,1.11,4.09,2.21,6.13,3.32c0,0,1.17-0.5,1.17-0.5
			c0.61,1.84-0.08,2.97-1.91,3.47c-6.96,2.63-7.49,8.2-6.63,14.41c-2.43-3.59-4.87-7.18-7.3-10.78
			C1381.41,355.34,1381.87,354.39,1382.36,353.45z"/>
		<path class="st38" d="M1433.68,360.07c1.12-1.15,2.24-2.3,3.36-3.45c0.62-0.84,1.41-1.04,2.36-0.63c1.76,1.8,3.52,3.6,5.28,5.39
			c-2.66,4.14-5.33,8.29-7.99,12.43C1431.14,370.23,1438.18,363.9,1433.68,360.07z"/>
		<path class="st39" d="M1510.15,356.31c3,3.25-0.82,5.13-1.53,7.64c-1.71,1.04-3.42,2.08-5.14,3.13c-2.65-3.37-9.63-6.33-1-10.75
			C1505.03,354.49,1507.59,354.49,1510.15,356.31z"/>
		<path class="st40" d="M1483.17,353.81c-1.59-1.51-3.17-3.02-4.76-4.53c-1.69-4.26,0.47-7.19,3.43-9.84
			c6.82-0.05,7.15,4.64,7.07,9.63C1486.99,350.65,1485.08,352.23,1483.17,353.81z"/>
		<path class="st41" d="M1510.15,356.31c-2.56,0.01-5.11,0.01-7.67,0.02c-1.2-1.27-2.41-2.55-3.61-3.82
			c2.48-4.04,9.13-0.81,10.85-6.19c1.38-0.01,2.75-0.01,4.13-0.02C1512.62,349.63,1511.38,352.97,1510.15,356.31z"/>
		<path class="st42" d="M1387.55,332.68c-1.95,0.08-3.9,0.16-5.84,0.24c-5.73-1.2-12.2,1.72-17.3-3.05
			C1372.22,329.94,1380.51,326.18,1387.55,332.68z"/>
		<path class="st43" d="M1538.08,340.34c-0.72-4.18-1.75-7.84-7.15-4.35c-0.15-4.84,2.51-7.85,6.9-6.03
			C1544.15,332.58,1540.37,336.77,1538.08,340.34z"/>
		<path class="st44" d="M1530.14,342.18c-0.36,6.58,4.28,14.84-6.12,18.02C1526.06,354.2,1528.1,348.19,1530.14,342.18z"/>
		<path class="st45" d="M1354.81,366.81c5.09,0.49,6.19-4.82,9.69-6.64c1.55,6.38-2.45,9.65-7.43,11.15
			C1354.04,372.23,1354.74,368.8,1354.81,366.81z"/>
		<path class="st46" d="M398.67,360.13c1.14-9.02,2.29-18.04,3.4-27.06c0.71-5.73,4.92-5.57,8.94-5.05c5.2,0.67,3.83,4.49,3.26,7.79
			c-1.63,9.55-3.71,19.06-4.74,28.68c-0.85,7.9-3.04,17.05-11.56,14.86c-6.18-1.59-1.95-10.72,0.34-16.4
			c1.02,0.54,1.51,1.18,1.49,1.92C401.14,362.89,399.61,361.58,398.67,360.13z"/>
		<path class="st47" d="M468.3,371.57c-4.09,3.28-6.04,9.86-14.43,8.43c5.55-17.81,9.22-35.92,20.88-50.97
			c14.77,0.42,12.8,10.24,11.22,19.84c-2.43,2.72-7.79,0.71-8.92,5.53c-1.63,4.08-1.91,8.58-3.99,12.52
			C471.93,368.95,469.22,369.34,468.3,371.57z"/>
		<path class="st48" d="M437.66,336.49c-4.29,9.13,4.7,9.5,8.71,13.2c10.09,9.32,10.47,17.58-2.77,24.27
			c-2.14-2.4-8.53-0.4-6.96-6.66c5.98-8.18-2.48-8.92-6.29-11.68c-7.67-5.55-12.81-11.23-3.64-19.72
			C430.51,333.41,434.22,332.57,437.66,336.49z"/>
		<path class="st49" d="M363.81,377.45c-3.24-12.88-12.28-24.71-7.15-39.11c0.74,0.19,1.48,0.38,2.22,0.56
			c4.55,2.11,5.53,7.06,8.41,10.51c0.84,3.68,1.76,7.3,6.8,6.8c4.08,0.76,8.71,0.98,7.15,7.26c-1.18,4.44-2.36,8.89-3.55,13.33
			C373.24,380.59,368.55,379.48,363.81,377.45z"/>
		<path class="st46" d="M381.24,363.47c-2.38-2.42-4.77-4.84-7.15-7.26c2.14-9.56,4.29-19.12,10.73-26.98
			c3.58-0.14,7.07-0.01,9.49,3.23C390.72,343.11,387.33,353.85,381.24,363.47z"/>
		<path class="st50" d="M492.31,349.2c1.89,6.89,3.63,13.83,5.74,20.66c1.37,4.44,0.04,8.13-3.62,10.02
			c-6.54,3.37-6.2-4.21-9.2-6.57c-2.45-1.98-4.89-3.96-5.85-7.16c-0.69-2.36-0.73-4.73-0.1-7.11c0.59-1.53,1.58-2.75,2.9-3.71
			C487.84,357.05,491.25,355.06,492.31,349.2z"/>
		<path class="st51" d="M437.66,336.49c-3.65-0.2-7.3-0.4-10.95-0.61c1.98-2.52,3.46-5.99,6.05-7.38c6.16-3.31,13.01-3.6,19.4-0.46
			c1.26,0.62,2.35,4.37,1.65,5.71C449.82,341.43,442.85,334.04,437.66,336.49z"/>
		<path class="st52" d="M492.31,349.2c0.27,7.21-2.6,10.22-9.86,7.34c-2.52-2.21-2.51-4.44-0.04-6.68
			c7.66-10.68,0.43-15.91-7.67-20.82c8.83-3.07,16.27-4.05,13.87,9.36C487.83,342.75,490.51,345.8,492.31,349.2z"/>
		<path class="st53" d="M356.66,338.34c-4.49-3.18-8.97-6.36-13.46-9.55c8.29-0.43,18.8-7.79,21.36,6.76
			c0.17,6.22-3.09,6.01-7.36,3.9L356.66,338.34z"/>
		<path class="st54" d="M436.65,367.29c2.32,2.22,4.64,4.44,6.96,6.66c-1.21,1.11-2.43,2.23-3.64,3.34
			c-3.12,2.76-6.71,1.64-10.22,1.26c-4.68-2.5-13.91-0.81-10.23-11.02C425.27,370.87,430.99,371.52,436.65,367.29z"/>
		<path class="st55" d="M481.74,366.98c2.62,1.31,3.47,3.59,3.49,6.33c-5.81,0.98-11.53,1.17-16.94-1.75
			c1.03-1.5,2.07-3.01,3.1-4.51C474.83,364.17,478.28,364.24,481.74,366.98z"/>
		<path class="st56" d="M357.21,339.46c3.14-0.01,5.75-1.02,7.36-3.91c3.24,4.17,3.03,9,2.73,13.86
			C363.53,346.49,358.54,344.81,357.21,339.46z"/>
		<path class="st57" d="M429.79,376.8c3.39,0.16,6.78,0.33,10.17,0.49c-6.69,6.8-13.63,3.93-20.57,0.51
			C422.57,374.52,426.17,375.62,429.79,376.8z"/>
		<path class="st58" d="M394.32,332.46c-3.49-0.12-7.25,0.54-9.49-3.23C389.12,326.99,393.69,323.97,394.32,332.46z"/>
		<path class="st59" d="M429.79,376.8c-3.47,0.33-6.93,0.67-10.4,1c-3.5-3.47-5.34-6.92,0.13-10.28
			C419.17,374.77,427.02,372.98,429.79,376.8z"/>
		<path class="st60" d="M398.67,360.13c4.47,2.93,3.15,7.69,5.35,12.42c-7.53-1.49-4.47-6.52-5.7-9.59
			C397.69,361.92,397.8,360.98,398.67,360.13z"/>
		<path class="st57" d="M363.81,377.45c4.63-0.22,9.26-0.44,13.88-0.66C373.28,381.49,368.76,384.07,363.81,377.45z"/>
		<path class="st61" d="M747.5,318.95c2.36-0.11,4.73-0.21,7.09-0.32c5.8,2.08,11.24,6,17.96,3.47c5.26,5.98,2.97,12.98,2.74,19.69
			c-2.22,5.95-5.99,7.53-11.51,4.06c-2.98-1.62-4.52-4.77-7.09-6.73c-2.03,0.82-2.5,2.78-3.5,4.36c-1.35,1.96-3.24,3.14-5.34,4.06
			c-2.32,0.49-4.6,0.54-6.82-0.42c-4.36-3.57-8.75-6.65-13.59-0.68l0.17-0.18c-5.01,3.2-10.54,1.2-15.83,1.58
			c-3.7-1-6.43-3.22-8.31-6.52c-2.95-7.04-4.93-13.77,5.64-16.1c4.42,4.89,8.9,7.74,13.62,0.3c5.72-2.1,10.24,4.43,15.97,2.18
			c1.24,0.02,2.45,0.3,3.56,0.72c3.55-0.69,1.86-4.03,2.96-5.95C745.64,321.07,746.42,319.91,747.5,318.95z"/>
		<path class="st62" d="M619.8,318.55c21.75-7.28,44.03-2.05,66.06-2.74c0.85,1.53,0.67,2.92-0.53,4.17
			c-9.29,2.9-19.48,5.08-15.52,18.84c0.09,3.57,3.61,6.51,2.01,10.4c-14.88-0.02-29.76-0.04-44.64-0.06
			c-0.77-0.79-1.08-1.61-0.93-2.48c0.16-0.89,0.35-1.34,0.57-1.35c2.15-2.15,4.77-3.48,7.6-4.49c1.47-0.39,2.97-0.52,4.48-0.49
			c0.73,0.09,1.47,0.22,2.2,0.3c0.7,0.17,1.41,0.38,2.12,0.55c1.5,0.58,3.04,1.51,4.64,1.27c1.22-0.18,1.16-1.31-0.1-2.25
			c-0.75-1.12-0.94-2.24-0.62-3.5c2.81-2.55,4.23-4.82-0.98-6.05c-3.04-2.48-2.74-4.8,0.14-6.95c0.97-0.47,1.8-0.96,2.36-1.42
			c-1.59-0.28-3.08,0.14-4.62,0.66c-0.67,0.33-1.28,0.62-1.93,0.94c-1.41,0.48-2.83,0.72-4.29,0.78c-1.47-0.04-2.91-0.27-4.32-0.63
			c-3.43-1.1-6.99-1.71-10.43-2.79C621.72,320.68,620.62,319.78,619.8,318.55z"/>
		<path class="st63" d="M685.71,319.21c0.05-1.13,0.1-2.26,0.14-3.4c17.29-0.05,34.59-0.11,51.88-0.16c0.94,1.53,0.86,2.97-0.4,4.3
			c-2.79,1.95-5.97,2.46-9.28,2.44c-2.31-0.22-4.62-0.19-6.92,0.16c-3.64,0.31-7.26,0.86-10.88,1.34c-2.8,0.02-5.51,1.22-8.36,0.75
			c-3.3-0.71-6.61-1.07-9.98-0.32c-2.16,0.23-4.19-0.11-6.04-1.31C684.94,321.79,684.88,320.52,685.71,319.21z"/>
		<path class="st64" d="M577.92,321.9c-0.88-2-1.76-4-2.64-6.01c13.03,0.19,26.31-3.79,38.97,2.36c-0.74,1.29-1.79,2.26-3.12,2.92
			c-3.24,1.32-6.87,1.7-9.75,3.95c-2.84,2.01-4.84,5.7-9.22,4.69C587.86,326.37,583.59,322.89,577.92,321.9z"/>
		<path class="st65" d="M588.51,347.18c1.51-1.54,3.03-3.07,4.54-4.61c2.46-1.29,5.38-1.46,7.59-3.28c2.94-2.58,3.58-7.9,8.95-7.6
			c4.4,2.82,5.8,7.97,9.13,11.64c1.25,1.81,2.33,3.66,1.24,5.95C609.48,348.52,598.67,352.65,588.51,347.18z"/>
		<path class="st66" d="M692.51,393.01c0.02-1.55,0.03-3.1,0.05-4.64c10.96-7.6,10.96-7.6,24.75-0.59c0,0,0.83,0.16,0.83,0.16
			c0.37,5.79-5.4,4.01-7.84,6.34C704.37,393.86,698.44,393.44,692.51,393.01z"/>
		<path class="st67" d="M671.82,349.23c-2.26-2.07-4.52-4.13-6.78-6.2c3.1-2.42,3.78-6.89,7.46-8.84c5.03-2.08,9.49-0.82,13.63,2.33
			c1.9,1.56,3.35,3.46,4.21,5.77c0.78,6.01-4.76,5.02-7.71,6.91C679.03,349.21,675.42,349.22,671.82,349.23z"/>
		<path class="st68" d="M682.63,349.2c2.33-2.04,4.67-4.07,7-6.11c0.68-1.09,1.65-1.79,2.86-2.17c1.21-0.17,2.44-0.13,3.66,0.02
			c2.18-0.13,2.82-2.48,4.62-3.16c2.18-0.24,4.21-0.18,5.05,2.37c1.55,1.72,3.11,3.44,4.66,5.16c1.01,0.9,1.3,1.74,0.87,2.51
			c-0.41,0.74-0.81,1.11-1.19,1.11C700.99,349.03,691.81,349.12,682.63,349.2z"/>
		<path class="st69" d="M682.75,377.63c1.09-0.13,2.17-0.06,3.23,0.22c1.1,2.66,3.07,5.47-1.25,7.18
			c-7.61-2.17-9.03,15.4-18.93,5.91C666.42,380.13,677.23,382.23,682.75,377.63z"/>
		<path class="st70" d="M710.3,394.28c2.61-2.11,5.22-4.23,7.83-6.34c0.59-0.07,1.17-0.12,1.75-0.13c5.21,4.26,11.6,1.9,17.36,3.1
			c2.44-1.59,5.14-1.77,7.93-1.48c4.47,0.59,9.21-1.1,13.43,1.58c0,1.07-0.03,2.14-0.1,3.2
			C742.43,394.24,726.36,394.26,710.3,394.28z"/>
		<path class="st71" d="M769,322.15c-0.94,3.05-1.87,6.1-2.81,9.15c-3.86-4.22-7.73-8.44-11.59-12.66c2.74-4.7,7.08-3.15,11.1-2.83
			c1.61,0.96,3.48,1.55,4.59,3.23C770.61,320.38,770.19,321.42,769,322.15z"/>
		<path class="st72" d="M608.68,319.31c1.86-0.35,3.71-0.7,5.57-1.05c1.85,0.1,3.7,0.2,5.55,0.29c1.38,0.1,2.76,0.2,4.15,0.3
			c2.74,3.23,1.5,6.99,1.44,10.6c-0.28,2.26-1.19,4.25-2.7,5.95c-1.12,0.98-2.41,1.59-3.89,1.79c-4.11-0.36-5.98-3.33-7.63-6.55
			c-1.24-2.38-1.96-4.96-2.76-7.51C608.07,321.84,608.17,320.56,608.68,319.31z"/>
		<path class="st73" d="M769.28,318.82c-1.2-1.01-2.39-2.01-3.59-3.02c15.37,0.27,18.24,8.89,10.32,31.01
			c-1.24-1.28-1.79-2.82-1.77-4.58C772.59,334.43,778.29,325.08,769.28,318.82z"/>
		<path class="st74" d="M737.47,319.8c0.09-1.39,0.18-2.77,0.28-4.15c4.11-1.42,6.8,1.34,9.76,3.3c0.22,1.03,0.18,2.06-0.11,3.07
			c-2.79,2.69,2.5,9.74-5.27,9.75c-0.43-0.86-0.89-1.7-1.39-2.51C737.12,326.97,734.76,324.26,737.47,319.8z"/>
		<path class="st75" d="M619.95,349.27c-1.3-1.14-2.6-2.29-3.9-3.43c-0.44-3.81,0.51-7.08,3.69-9.49l0.42-0.52
			c10.86-2.37,9.78,3.29,6.87,10.17c0.03,1.06,0.08,2.11,0.14,3.17C624.77,349.2,622.36,349.24,619.95,349.27z"/>
		<path class="st76" d="M748.24,346.31c1.14-1.15,2.27-2.29,3.41-3.44c4.86-1.57-2.63-11.58,6.86-9.98c1.3,3.27,2.6,6.55,3.89,9.82
			c-0.39,2.12-2.47,2.95-3.49,4.58c-1.32,0.6-2.64,1.2-3.96,1.8C753.01,347.44,749.85,348.74,748.24,346.31z"/>
		<path class="st57" d="M647.28,389.63c-0.44-0.97-1.19-1.53-2.27-1.66c1.41-5.99,6.19-2.5,9.43-3.33c2.1,2.26,4.21,4.52,6.31,6.79
			C655.29,398.1,652.02,388.4,647.28,389.63z"/>
		<path class="st77" d="M727.44,346.43c-1.24-2.36-3.59-5.34,0.64-6.55c5.92-1.7,11.08-0.3,13.61,6.15
			c-1.46,1.72-3.09,1.91-4.9,0.54C733.68,346.53,730.56,346.48,727.44,346.43z"/>
		<path class="st78" d="M758.91,347.28c1.16-1.53,2.33-3.05,3.49-4.58c3.35,0.98,6.49,7.03,10.16,0.42
			c0.61-1.36,1.58-1.71,2.92-1.06c0.18,1.58,0.36,3.16,0.54,4.74C770.48,353.08,764.67,349.12,758.91,347.28z"/>
		<path class="st79" d="M736.8,346.58c1.63-0.18,3.26-0.36,4.9-0.54c2.18,0.09,4.36,0.19,6.55,0.28c2.24,0.93,4.47,1.85,6.71,2.78
			C748.75,349.34,742.18,352.19,736.8,346.58z"/>
		<path class="st14" d="M710.17,348.94c0.11-1.21,0.21-2.42,0.32-3.63c5.71,0.31,11.42,0.62,17.12,0.93
			C722.64,352.58,716.17,349.22,710.17,348.94z"/>
		<path class="st80" d="M1191.22,308.83c33.87-17.5,62.64-12.92,78.77,12.54c12.17,19.22,10.45,45.22-4.12,62.31
			c-14.73,17.26-39.69,23.05-60.95,13.94c-4.7-2.01-9.16-4.61-13.73-6.94c-2.47-1.48-5-2.85-2.83-6.47
			c0.81-1.36,2.64-0.21,3.18-1.69c-3.08-0.33-8.41,0.71-6.68-4.34c1.45-4.24,6.59-2.61,10.81-1.66c-5.79-3.25-12.82,2.68-18.88-4.03
			c5.28-8.59,15.13-4.88,22.1-7.92c1.81-1.47,3.39-3.19,5.21-4.64c1.28-0.87,2.69-1.42,4.21-1.68c4.53-0.13,8.04,3.05,12.29,3.75
			c1.98-0.07,3.81-0.62,5.44-1.79c2.71-2.2,3.88-5.74,6.8-7.74c4.46-0.63,6.49,2.88,9.17,5.28c4.05,4.13,8.08,5.12,12.05-0.09
			c2.26-3.68,2.68-7.4,0.33-11.16c-2.72-2.87-5.88-1.52-8.97-0.9c-5.04,1.24-9.97,0.27-14.89-0.66c-2.87-0.37-5.83-0.09-8.62-1.08
			c-2.63-1.22-5.36-1.87-8.3-1.36c-5.22,0.71-10.42,1.49-15.64,2.22c-3.24,0.19-6.4-0.42-9.6-0.71c-3.31-0.24-6.59-0.58-9.75-1.6
			c-3.6-2.1-8.29-5.15-1.21-7.61c5.57-1.93,12.17-0.7,18.91-0.21c1.71-0.04-0.53-3.63,0.09-1.41c0.17,0.59-0.32,1.05-1.41,0.92
			c-5.9-0.73-12.35,2.2-18.33-2.78c5.31-7.22,12.68-2.2,17.57-4.04c-3.74-1.16-9.23,1.9-13.64-1.95c-0.89-3.64,1.11-4.51,4.28-4.93
			c2.23-0.3,3.43-1.26,1.45-0.09c-1.98,1.18,0.5-2.33-0.71-0.37s-2.84-2.52-1.55-0.79C1182.65,312.97,1189.06,312.41,1191.22,308.83
			z"/>
		<path class="st81" d="M1204.68,367.2c-6.78,7.49-16.41,0.21-25.62,5.65c7.98,0.7,14.32,1.26,21.27,1.87
			c-4.56,4.92-10.17,1.08-15.9,4.11c9.11,0.9,9.49,5.72,6.74,11.85c-14.38,7.31-28.92,14.21-45.73,9.82
			c-20.56-5.37-34.33-18.24-39.33-38.9c-4.85-20.03,1.1-37.77,16.64-51.01c16.65-14.2,35.93-16.58,56.23-7.73
			c4.15,1.81,8.15,3.97,12.22,5.97c5.9,7.72-5.29,5.23-5.55,9.26c-0.89,2.17-3.33,2.6-4.72,4.22c5.52,7.13,14.18,0.58,22.61,5.87
			c-9.31,0.58-16.6,1.04-23.89,1.49c-0.01,0.7-0.01,1.39-0.02,2.09c8.02,0.49,16.04,0.97,26.59,1.61
			c-10.67,4.51-19.38,1.34-27.64,2.98c-0.38,0.07-0.62,0.83-0.92,1.26c1.22,0.79,2.43,1.58,3.65,2.37c0.79,3.48-0.97,5.67-3.74,7.35
			c-2.26,0.51-4.37,0-6.43-0.89c-1.31-0.51-2.61-1.1-3.91-1.65c-4.72-1.93-9.72,0.42-14.48-0.84c-5.43-2.84-8.98,1.38-13.11,3.5
			c-1.52,0.28-2.97,0.12-4.37-0.5c-2.01-1.3-3.51-4.29-6.6-1.93c-1.63,2.06-2.87,4.31-4.1,6.57c-0.68,2.63-3.24,5.66,1.71,6.9
			c1.27,0.04,2.46,0.32,3.62,0.72c1.81,0.62,3.61,0.78,5.41-0.12c2.36-1.63,4.52-3.65,7.69-3.3c3.53,1.48,7.19,2.56,10.76,3.85
			c4.58,2.35,9.13,4.41,13.2-0.92c0.94-1.16,2.04-2.13,3.27-2.96c1.48-0.42,2.94-0.37,4.39,0.11c3.14,2.03,6.07,4.41,9.72,5.58
			C1191.05,363.72,1199.15,361.02,1204.68,367.2z"/>
		<path class="st82" d="M935.09,309.7c26.39-20.05,57-12.55,72.32,3.55c17.21,18.09,19.63,45.92,5.34,66.51
			c-14.06,20.28-41.92,28.04-64.44,17.73c-4.68-2.14-8.95-5.17-13.41-7.79c1.93-4.54-17.52-13.14,2.06-14.21
			c-4.77-1.03-11.21,3.29-15.66-2.4c1.93-10.42,14.09-1.57,16.72-9.95c2.45-3.14,5.76-4.64,9.53-5.35c1.52-0.14,3.03-0.03,4.53,0.27
			c5.53,2.74,11.56,2.05,17.45,2.41c4.53,0.54,9.1,2.5,13.38-0.72c1.18-0.83,2.42-1.58,3.67-2.31c1.85-1.05,3.81-1.76,5.97-1.8
			c2.12,0.31,4.03,1.21,5.93,2.15c2.09,0.67,4.14,0.82,6.11-0.36c1.46-3.4,7.58-6.88-0.38-9.83c-0.67,0.15-1.32,0.24-1.98,0.37
			c-1.33,0.23-2.66,0.24-3.99,0.12c-1.93-0.32-3.86-0.72-5.83-0.78c-2.72,0.2-5.24,1.19-7.85,1.89c-3.66,0.82-7.33,0.97-11.02,0.27
			c-1.48-0.35-2.87-0.95-4.18-1.71c-3.56-3.91-7.53-6.94-13.3-6.12c-1.52-0.26-2.96-0.74-4.34-1.4c-2.68-1.47-5.31-3.05-8.53-3.03
			c-7.6-0.77-15.97,1.28-22.59-5.83c5.01-6.83,11.77-2.69,16.73-4.05c-3.89-0.94-8.89,1.49-12.92-2.05
			c-0.92-3.78,1.32-4.68,4.41-4.92c0.27-0.02,1.65,1.8,1.15-0.5c-0.49-2.24,0.34,0.88-1.7-0.3
			C925.81,312.97,932.85,313,935.09,309.7z"/>
		<path class="st83" d="M924.78,322.28c5.53,6.98,14.43,0.51,22.38,5.89c-8.86,0.59-15.98,1.07-23.09,1.55
			c0.01,0.94,0.02,1.88,0.03,2.83c8.2,0,16.39,0,24.59,0c-3.89,13.54-16.12,4.94-23.6,8.9c-2.98,1.08-5.97,2.16-8.64,3.92
			c-3.23,2.16-6.08,4.96-10.02,5.91c-5.41,0.33-10.69-0.91-16.04-1.3c-4.5-0.49-7.93-3.03-11.19-5.83
			c-2.49-1.45-4.84-0.46-7.23,0.45c-1.4,0.33-2.78,0.43-4.19,0.38c-5.9,0.1-7.83,3.77-6.78,8.69c1.07,5,4.97,2.54,7.97,1.93
			c5.15-0.84,8.58,2.62,12.5,4.86c4.78,2.65,9.63,3.08,14.59,0.53c1.2-0.84,2.45-1.58,3.71-2.3c1.3-0.66,2.68-1.1,4.11-1.37
			c2.15-0.26,4.27-0.05,6.35,0.52c2.62,0.82,5.23,1.68,8.01,1.89c1.41-0.02,2.8,0.04,4.21,0.06c1.46-0.08,2.9-0.05,4.35-0.02
			c3.03,0.04,6.02,0.23,8.9,1.27c1.44,0.66,2.5,1.73,3.23,3.12c2.34,1.39,4.67,2.77,9.06,5.38c-8.59,0.57-15.51,1.03-22.42,1.49
			c-0.07,0.66-0.14,1.32-0.21,1.98c5.47,0.5,10.95,1,17.03,1.55c-2.7,5.38-8.78,0.63-11.8,4.53c9.01,0.56,4.7,6.32,4.33,10.6
			c-32.45,18.45-60.09,14.5-77.27-11.02c-13.48-20.04-11.84-45.35,4.13-63.48c15.08-17.12,40.21-22.13,61.28-12.08
			c4.12,1.96,8.04,4.37,12.04,6.57c5.55,8.06-6.39,3.95-5.92,8.47C928.43,320.3,926.13,320.78,924.78,322.28z"/>
		<path class="st84" d="M623.97,380.11c6.01-2.63,10.7-2.89,16.65,0.17C634.6,385.67,629.91,385.83,623.97,380.11z"/>
		<path class="st85" d="M658.33,370.77c5.13-2.53,6.48-0.68,6.82,4.69c0.53,8.34-4.83,8.56-10.54,8.92
			C657.9,380.4,658.73,375.75,658.33,370.77z"/>
		<path class="st23" d="M641.83,388.22c-7.34,3.33-14.65,3.89-21.91-0.27C627.23,388.04,634.53,388.13,641.83,388.22z"/>
		<path class="st86" d="M641.19,373.44c1.11-0.97,2.22-1.94,3.33-2.92C643.41,371.49,642.3,372.46,641.19,373.44z"/>
		<path class="st87" d="M746.04,390.4c-2.93,0.17-5.86,0.34-8.8,0.51c1.33-2.17,2.66-4.34,3.99-6.51c-2.05-2.36-1.89-4.72,0.01-7.08
			c0,0,0.07,0.07,0.07,0.07c1.42-0.13,2.83-0.26,4.25-0.38c0.86,0.06,1.66,0.31,2.41,0.74c2.25,2,2.28,3.94-0.14,5.82
			c-1.61,0.86-3.01,1.84-2.18,4.02C746.57,388.42,746.7,389.35,746.04,390.4z"/>
		<path class="st88" d="M741.24,377.32c0,2.36-0.01,4.72-0.01,7.08c-3.85-0.3-7.69-0.6-14.72-1.14
			C733.35,380.51,737.3,378.92,741.24,377.32z"/>
		<path class="st89" d="M746.04,390.4c-0.37-0.9-0.51-1.84-0.4-2.81c5.55,0.09,11.09,0.17,16.64,0.26
			c-1.22,1.05-2.45,2.11-3.68,3.16C754.42,390.81,750.23,390.61,746.04,390.4z"/>
		<path class="st90" d="M747.83,383.57c0.05-1.94,0.1-3.88,0.15-5.82c3.25,0.5,8.49,0.21,8.13,4.01
			C755.69,386.19,750.8,383.4,747.83,383.57z"/>
		<path class="st91" d="M782.86,384.3c-4.52,0.21-9.04,0.42-13.55,0.64c0.12-1.67,0.24-3.34,0.36-5.02
			C775.13,378.19,781.17,374.74,782.86,384.3z"/>
		<path class="st92" d="M577.92,321.9c9.7-8.06,11.12,2.46,15.31,6.78c0.56,1.5,0.27,2.78-1.01,3.8c-5.52-4.73-10.94-0.98-16.39,0.2
			C576.53,329.09,577.23,325.5,577.92,321.9z"/>
		<path class="st93" d="M592.22,332.49c0.34-1.27,0.67-2.53,1.01-3.8c1.94-2.21,3.88-4.41,5.82-6.61
			c4.45,8.35,9.76,17.03-6.73,17.23c0,0,0.17,0.19,0.17,0.19C592.4,337.15,592.31,334.82,592.22,332.49z"/>
		<path class="st94" d="M592.31,339.3c11.62-2.09,5.77-10.98,6.74-17.22c2.48-3.44,6.14-2.83,9.63-2.76
			c0.05,1.25,0.1,2.51,0.15,3.76c-3.49,6.32-4,13.47-5.7,20.29c-3.85,5.95-6.78,0.26-10.08-0.78
			C592.81,341.48,592.56,340.39,592.31,339.3z"/>
		<path class="st95" d="M1481.84,339.44c1.68,4.26-1.61,6.8-3.43,9.84c-3.38,2.46-6.87,4.2-9.3-0.9c-1.43-3.01-1.96-6.28,0.84-9.13
			C1474.02,335.1,1477.91,337.32,1481.84,339.44z"/>
		<path class="st96" d="M1381.29,336.83c2.3,5.04-0.16,8.87-3.2,12.55c-5.12,0.41-11.48,1.92-10.01-6.65
			C1369.4,335.04,1375.1,334.84,1381.29,336.83z"/>
		<path class="st97" d="M1394.89,352.67c0.64-1.16,1.27-2.31,1.91-3.47c5.64-0.52,10.54-5.23,16.69-2.93
			c0.2,5.13-4.74,6.47-7.15,9.67c-1.24,1.35-2.59,1.48-4.06,0.39C1400.87,353,1397.54,353.5,1394.89,352.67z"/>
		<path class="st98" d="M1402.27,356.33c1.35-0.13,2.71-0.26,4.06-0.39c6.31,2.96,2.08,5.56-0.29,8.22
			c-2.96-0.73-5.92-1.45-8.88-2.18C1398.87,360.1,1400.57,358.22,1402.27,356.33z"/>
		<path class="st99" d="M482.41,349.86c0.01,2.23,0.02,4.45,0.04,6.68c-0.51,1-0.83,2.06-0.97,3.18c-7.71,3.76-8.73,0-7.33-6.48
			c1.12-2.8,1.49-7.01,3.52-8.08C480.87,343.47,481.26,347.71,482.41,349.86z"/>
		<path class="st100" d="M474.14,353.24c-0.24,5.18,2.05,7.52,7.33,6.48c0.09,2.42,0.17,4.84,0.26,7.26
			c-3.45,0.02-6.9,0.05-10.34,0.07C471.81,362.35,469.65,357.13,474.14,353.24z"/>
		<path class="st101" d="M720.4,318.72c2.54,0.1,5.08,0.2,7.62,0.3c0.88,3.35-1.07,5.25-3.57,6.85c-2.45,4.88-2.47,13.17-9.57,12.53
			c-7.2-0.65-4.03-8.08-4.48-12.84c0.46-0.51,0.91-1.02,1.37-1.54C714.48,321.99,718.27,321.71,720.4,318.72z"/>
		<path class="st102" d="M724.46,325.87c1.19-2.28,2.38-4.57,3.56-6.85c3.15,0.26,6.3,0.52,9.45,0.78c1.09,3.15,2.18,6.3,3.26,9.46
			C733.53,336.63,728.16,335.22,724.46,325.87z"/>
		<path class="st103" d="M705.82,340.16c-1.82-0.1-3.63-0.2-5.45-0.3c-5.29-3.81-4.62-9.02-3.41-14.36
			c0.66-1.71,1.83-2.99,3.47-3.82c3.1,0.01,6.19,0.02,9.29,0.03c1.05,0.81,1.47,1.69,1.26,2.64c-0.22,0.99-0.48,1.48-0.79,1.48
			c0,0,0.21-0.26,0.21-0.26C701.93,328.26,704.4,334.37,705.82,340.16z"/>
		<path class="st104" d="M775.48,342.07c-1.01,0.25-1.98,0.61-2.92,1.06c-1.43-6.95,2.71-14.85-3.56-20.98
			c-0.23-1.14-0.13-2.24,0.29-3.32C781.7,323.83,772.89,334.46,775.48,342.07z"/>
		<path class="st105" d="M742.12,331.77c1.76-3.25,3.52-6.5,5.27-9.75c0.24,3.77,0.69,7.55,0.59,11.31
			c-0.03,1.16-1.56,2.29-2.41,3.43C744.42,335.1,743.27,333.44,742.12,331.77z"/>
		<path class="st104" d="M758.51,332.89c-6.22,0.64-1.51,8.75-6.86,9.98C753.7,339.39,746.68,329.69,758.51,332.89z"/>
		<path class="st106" d="M672.23,336.05c-0.59,4.18-1.47,8.06-7.19,6.98c-0.06-24.44-0.06-24.44,20.68-23.83
			c0.03,0.98,0.26,1.92,0.67,2.8c0.89,1.38,1.08,2.83,0.48,4.36C684.21,332.93,675.41,330.26,672.23,336.05z"/>
		<path class="st107" d="M627.04,346c0.14-5.03-0.07-9.81-6.87-10.17c1.1-2.1,2.2-4.21,3.31-6.31c2.27-2.76,5.06-2.66,8.05-1.44
			c5.79,4.37,6.44,9.68,2.88,15.75C632.48,346.35,629.81,346.37,627.04,346z"/>
		<path class="st108" d="M630.71,330.05c-2.41-0.18-4.83-0.35-7.24-0.53c-4.63-3.77,1.48-7.06,0.48-10.67
			c3.72,0.16,7.69-0.53,10.39,3.07C636.51,326.14,635.75,329.05,630.71,330.05z"/>
		<path class="st109" d="M641.28,322.34c5.95-6.48,12.28-3.87,19.93-1.51c-4.22,6.67-9.36,4.19-13.88,4.05
			C645.22,324.27,642.82,324.33,641.28,322.34z"/>
		<path class="st110" d="M647.76,339.47c3.85,0,7.7,0,13.97,0c-7.71,7.86-13.65,8.3-20.17,3.12
			C643.09,340.5,645.16,339.47,647.76,339.47z"/>
		<path class="st10" d="M647.76,339.47c-1.3,2.57-3.61,3.13-6.21,3.12c0,0-0.98,0.44-0.98,0.44c-4.2-7.03-4.55-14.04,0.09-21.04
			c0,0,0.62,0.35,0.62,0.35c2.02,0.85,4.03,1.7,6.05,2.54c-2.82,1.69-2.73,3.29,0.16,4.79c2.9,3.12-3.05,6.61,0.41,9.7
			L647.76,339.47z"/>
		<path class="st111" d="M647.9,339.37c-6.04-2.98-1.27-6.42-0.41-9.7c3.75,0,7.49,0,11.23,0
			C659.61,338.45,648.83,333.18,647.9,339.37z"/>
		<path class="st112" d="M630.71,330.05c2.85-1.98,3.42-4.97,3.62-8.12c1,0.16,2,0.3,3,0.4c2.84,6.83,2.7,13.67,0.1,20.52
			c-1.09,0.09-2.1,0.42-3.04,0.97C634.08,339,633.72,334.17,630.71,330.05z"/>
		<path class="st22" d="M637.44,342.85c-0.03-6.84-0.07-13.68-0.1-20.52c1.11-0.13,2.22-0.25,3.33-0.34
			c-0.03,7.01-0.06,14.03-0.09,21.04C639.53,342.98,638.48,342.92,637.44,342.85z"/>
		<path class="st67" d="M685.51,325.72c0.29-1.24,0.59-2.47,0.88-3.71c2.08,0.01,4.15,0.03,6.23,0.05
			c5.37,7.02,4.68,13.99-0.17,20.93c-0.94-0.01-1.88,0.02-2.82,0.1c-1.22-1.14-2.44-2.29-3.66-3.43
			C682.53,335.12,682.67,330.47,685.51,325.72z"/>
		<path class="st113" d="M692.45,342.99c0.06-6.98,0.11-13.95,0.17-20.93c2.47-2.86,5.01-4.33,7.82-0.38c0,0-1.23,0.9-1.23,0.9
			c-3.54,6.57,1.52,14.49-3.29,20.86C694.76,343.29,693.6,343.14,692.45,342.99z"/>
		<path class="st114" d="M710.19,325.83c-0.15-1.37-0.31-2.74-0.46-4.12c2.72-3.97,6.95-2.58,10.67-2.98
			C721.82,327.98,714.52,324.78,710.19,325.83z"/>
		<path class="st115" d="M603.13,343.35c2.07-6.72-6.19-16.34,5.71-20.29c3.54,0.67,4.29,3.11,3.97,6.23
			c-0.61,1.6-1.67,2.77-3.25,3.46C604.25,334.38,607.84,341.36,603.13,343.35z"/>
		<path class="st116" d="M609.55,332.75c1.08-1.15,2.17-2.3,3.25-3.46c1.37,3.28,3.54,5.77,6.94,7.06
			c-1.23,3.16-2.46,6.33-3.69,9.49C611.87,342.47,610.49,337.72,609.55,332.75z"/>
		<path class="st117" d="M685.51,325.72c0.15,4.64,0.31,9.29,0.46,13.93c-4.27-2.39-8.41-5.24-13.74-3.6
			c-3.88-3.49-2.83-5.54,1.85-6.81C677.92,328.21,681.7,326.91,685.51,325.72z"/>
		<path class="st118" d="M695.91,343.44c1.67-6.87-2.56-14.66,3.29-20.86c0.39,5.76,0.78,11.52,1.17,17.28
			C699.53,341.84,700.46,346.04,695.91,343.44z"/>
		<path class="st119" d="M1180.92,363.82c-3.81-1.09-6.83-2.91-6.87-7.46c-2.48-4.57,0.47-7.56,3.11-10.64
			c1.38-1.92,2.77-3.83,4.15-5.75c3.05,0.03,6.1,0.07,9.15,0.1c4.97,4.06,1.98,9.09,1.74,13.75c-6.4,2.61,3.23,8.34-2.13,11.21
			C1186.96,365.15,1183.76,365.83,1180.92,363.82z"/>
		<path class="st120" d="M1215.43,339.48c5.91-7.05,6.56-1.5,7.58,3.15c1.16,8.15,4.29,16.36-0.81,24.3
			c-6.61,1.45-8.59-5.83-13.68-7.23c-1.99-1.78-2.25-4.05-1.86-6.51C1208.13,347.71,1211.26,343.27,1215.43,339.48z"/>
		<path class="st121" d="M1234.15,353.08c-1.47,4.45-1.02,10.24-7.71,11.07c-5.53-8.81-3.56-16.48,3.59-23.35
			c5.29,2.66,10.93,2.28,16.57,1.93c1.25,1.06,2.07,2.39,2.53,3.95c0.35,2.41-0.04,4.67-1.39,6.71c-1.14,0.95-2.48,1.54-3.95,1.76
			C1240.32,355.74,1237.88,351.43,1234.15,353.08z"/>
		<path class="st122" d="M1243.17,353.28c0.8-0.15,1.61-0.24,2.43-0.27c2.39,0.96,4.54-0.39,6.82-0.68
			c3.69,1.52,4.61,4.81,5.33,8.22c-5.63,8.76-11.69,9.13-18.17,0.91C1239.56,358.2,1240.43,355.33,1243.17,353.28z"/>
		<path class="st123" d="M1230.03,340.8c0.39,8.03-7.23,14.83-3.6,23.36c-1.41,0.92-2.82,1.85-4.24,2.78
			c2.98-8.01-7.82-16.48,0.81-24.3C1225.35,342.02,1227.69,341.41,1230.03,340.8z"/>
		<path class="st124" d="M1215.43,339.48c-0.15,5.55-2.6,9.97-6.74,13.55c-1.9-0.01-3.45-0.9-4.96-1.91
			c-1.57-0.94-3.15-1.87-4.71-2.85c-1.05-0.75-1.84-1.7-2.37-2.87c-0.24-1.37,0.24-2.39,1.45-3.07
			C1202.92,335.55,1209.89,341.88,1215.43,339.48z"/>
		<path class="st125" d="M1257.75,360.55c-2.13-2.52-4.27-5.04-6.4-7.56c-1.91-0.37-2.69-1.46-2.19-3.38
			c1.77-3.38,1.54-9.13,8.11-6.87C1263.24,348.52,1262.52,354.48,1257.75,360.55z"/>
		<path class="st126" d="M1198.1,342.33c0.15,1.49,0.3,2.99,0.45,4.48c2.16,1.14,3.79,2.71,4.31,5.21
			c-0.59,1.53-1.63,2.64-3.13,3.32c-3.31,0.79-6.35,0.63-8.59-2.39c-2.87-4.16-0.69-8.58-0.66-12.88
			C1193.02,340.82,1195.56,341.57,1198.1,342.33z"/>
		<path class="st127" d="M1180.92,363.82c3.29-0.28,6.58-0.57,9.87-0.85c3.39-3.08,7.57-4.03,11.97-4.42
			c1.51,0.1,2.73,0.76,3.66,1.96c-0.58,2.23-1.15,4.46-1.73,6.7C1196.83,365.61,1188.11,370.06,1180.92,363.82z"/>
		<path class="st123" d="M1243.17,353.28c0.57,3.49-0.07,6.46-3.59,8.17c-1.81-2.78-3.62-5.56-5.42-8.36
			C1237.41,341.69,1240.15,353.77,1243.17,353.28z"/>
		<path class="st128" d="M1257.28,342.74c-2.11,2.34-4.23,4.67-6.34,7.01c-2.38,0.45-2.71-1.99-4.11-2.92
			c-0.07-1.37-0.14-2.74-0.21-4.11C1250.17,339.16,1253.72,338.74,1257.28,342.74z"/>
		<path class="st129" d="M1180.95,322.29c1.57-1.41,3.14-2.81,4.72-4.22c3.75,0.33,7.51,0.65,11.26,0.98
			c-0.03,0.84-0.06,1.69-0.08,2.53C1191.55,321.82,1186.25,322.06,1180.95,322.29z"/>
		<path class="st130" d="M1202.01,352.86c-0.15-1.05-0.25-2.1-0.28-3.15c0.55-0.46,1.11-0.93,1.66-1.4c0.6,0.4,1.2,0.8,1.81,1.2
			c1.17,1.18,2.33,2.35,3.5,3.52c-0.06,2.22-0.12,4.45-0.17,6.68c-0.62,0.47-1.32,0.74-2.1,0.8c-0.52-0.35-1.07-0.67-1.63-0.95
			C1202.59,357.84,1201.6,355.64,1202.01,352.86z"/>
		<path class="st131" d="M1139.33,346.24c2.84-7.11,5.09-15.9,14.23-4.95c1.89,2.83,5.52,4.65,5.19,8.79
			c-0.15,2.85-1.17,5.44-2.5,7.93c-0.72,1.2-1.69,2.17-2.88,2.92c-4.06,0.05-10.28,6.14-10.75-3.83
			C1140.26,353.87,1139.43,350.16,1139.33,346.24z"/>
		<path class="st132" d="M1139.33,346.24c5.8,2.2,5.79,6.16,3.3,10.87c-2.25,2.15-4.5,4.3-6.75,6.45c-5.51,3.37-3.4-5.62-7.47-4.58
			c-0.97,0.64-1.94,1.28-2.91,1.92c-4.34-2.82-6.47-6.34-3.61-11.43c1.25-2.24,2.49-4.49,3.74-6.73c5.45-4.78,7.01,1.88,10.3,3.48
			C1137.06,346.22,1138.19,346.23,1139.33,346.24z"/>
		<path class="st133" d="M1156.57,353.37c-1-4.03-2.01-8.05-3.01-12.08c5.49,0.94,11.74-5.4,16.57,1.75
			c0.21,6.44-3.81,9.37-9.26,11.13c-0.75,0.05-1.5,0.09-2.25,0.14C1157.94,354,1157.26,353.69,1156.57,353.37z"/>
		<path class="st134" d="M1160.42,352.79c3.24-3.25,6.48-6.5,9.71-9.75c0,0,0.24,0.05,0.24,0.05c3.57,4.6,3.11,9.32,0.38,14.09
			c0.04,0.94,0,1.87-0.15,2.8c-2.6,4.23-5.82,5.8-10.19,2.38c-0.9-0.94-1.46-2.08-1.73-3.34c-0.27-1.8,2.29-2.57,1.7-4.52
			C1160.38,354.5,1160.42,352.79,1160.42,352.79z"/>
		<path class="st135" d="M1135.92,346.21c-4.69,2.53-5.91-5.12-10.3-3.48c-0.43-3.79,0.46-6.76,5.02-6.44
			C1137.49,336.77,1135.87,341.99,1135.92,346.21z"/>
		<path class="st127" d="M1160.16,360.36c3.56,2.11,7.06,2.24,10.45-0.38c-5.15,10.97-10.91,11.01-17.23,0.96
			c0,0-0.19-1.07-0.19-1.07c0.87-1.08,1.97-1.43,3.34-1.04C1157.6,359.69,1158.81,360.21,1160.16,360.36z"/>
		<path class="st127" d="M1121.88,349.47c1.2,3.81,2.41,7.61,3.61,11.42c-1.43,5.11-3.89,7.69-6.34,0.96
			C1117.71,357.86,1117.85,352.91,1121.88,349.47z"/>
		<path class="st136" d="M1170.76,357.18c-0.13-4.7-0.25-9.4-0.38-14.09c2.26,0.88,4.53,1.75,6.79,2.63
			c-1.04,3.55-2.08,7.1-3.11,10.64C1172.87,356.3,1171.78,356.58,1170.76,357.18z"/>
		<path class="st137" d="M1128.41,358.97c7.8-7.09,2.14,7.66,7.47,4.58C1129.01,369.13,1129.58,362.64,1128.41,358.97z"/>
		<path class="st138" d="M953.14,339.86c0.97-0.01,1.94,0.03,2.91,0.13c3.12,0.91,4.55,3.15,4.97,6.19
			c-0.08,3.75,1.97,5.94,5.37,7.16c1.31,0.55,2.48,1.28,3.59,2.16c0.93,1.15,1.46,2.45,1.62,3.9c-0.14,1.53-0.88,2.66-2.23,3.39
			c-5.68-1.92-13.15,8.56-17.51-2.52c-3.33-4.34-3.73-9.26-2.88-14.43c0.38-1.67,1.08-3.2,2.02-4.62
			C951.7,340.77,952.42,340.32,953.14,339.86z"/>
		<path class="st139" d="M972.68,346.37c4.73-0.6,9.46-1.21,14.19-1.81c5.16,5.02,3.11,10.32,0.64,15.65l-0.13,0.36
			c-4.74,1.6-9.29,0.56-13.8-1.01c-1.36-0.79-2.61-1.73-3.77-2.8l-0.18-0.56C966,351.49,969.25,348.9,972.68,346.37z"/>
		<path class="st140" d="M972.68,346.37c-1.02,3.28-2.03,6.56-3.05,9.84c-8.56,1.37-17.93,3.51-10.16-10.64
			c3.26-2.43,6.38-2.12,9.4,0.45C970.14,346.13,971.41,346.25,972.68,346.37z"/>
		<path class="st141" d="M938.92,364.17c-1.18-0.38-2.36-0.76-3.54-1.14c-1.27-0.85-1.91-2.05-2.01-3.56c0.2-1.45,0.7-2.79,1.4-4.07
			c2.63-3.5,3.68-7.8,5.79-11.58c2.24-2.65,4.93-3.45,8.17-2.01c0.97,5.77,2.29,11.54-0.22,17.27
			C945.67,361.44,943.02,364.17,938.92,364.17z"/>
		<path class="st142" d="M1004.36,363.21c-2.85,0.48-5.56,0.61-6.93-2.7c-0.79-1.06-1.4-2.21-1.84-3.45
			c-0.52-1.23-0.76-2.52-0.74-3.86c0.19-1.32,0.63-2.56,1.31-3.72c1.33-1.5,3.41-1.96,4.78-3.42l-0.27,0.17
			C1012.01,347.48,1012.31,348.88,1004.36,363.21z"/>
		<path class="st143" d="M1004.36,363.21c-2.03-5.49,10.39-14.1-3.69-16.98c2.64-6.18,8.81-2.13,14.86-7.04
			C1011.77,349.52,1015.36,359.46,1004.36,363.21z"/>
		<path class="st144" d="M973.54,357.15c5.15-1.01,9.61,0.73,13.84,3.42c-5.06,8.32-11.22,7.84-18.02,2.22
			c0.07-0.88,0.15-1.76,0.23-2.64C970.78,358.99,971.83,357.64,973.54,357.15z"/>
		<path class="st145" d="M920.53,339.92c7.45-9.8,20.46,1.52,28.15-7.37c3.33,1.33,3.69,4.44,4.45,7.32c0,0-0.28,0.39-0.28,0.39
			c-8.98,0.64-17.48,4.27-26.57,4.27C923.31,344.3,921.07,343.17,920.53,339.92z"/>
		<path class="st146" d="M968.87,346.01c-3.13-0.15-6.27-0.3-9.4-0.45c-1.14-1.85-2.28-3.71-3.43-5.56
			C964.09,334,968.36,336.02,968.87,346.01z"/>
		<path class="st147" d="M987.51,360.21c-0.22-5.21-0.43-10.42-0.64-15.64c2.19-2.74,4.66-1.98,7.19-0.62
			c0.68,1.69,0.36,3.42,0.2,5.14c0.06,1.17,0.26,2.32,0.63,3.44c0.17,0.57,0.32,1.14,0.48,1.71c-0.05,0.6-0.11,1.19-0.16,1.78
			c-0.53,0.28-1.06,0.55-1.6,0.82C991.57,357.96,989.54,359.09,987.51,360.21z"/>
		<path class="st148" d="M948.51,359.08c0.22-5.18-3.88-10.48,0.47-15.53c0.57-1.9,1.62-2.11,3.07-0.86
			c-0.07,5.86-0.13,11.73-0.2,17.59C950.74,359.88,949.63,359.48,948.51,359.08z"/>
		<path class="st149" d="M924.78,322.28c1.46-1.37,2.92-2.74,4.39-4.11c3.57,0.97,8.01-1.18,11.54,4.11
			C934.82,322.28,929.8,322.28,924.78,322.28z"/>
		<path class="st150" d="M990.86,350.23c1.06-2.1,2.12-4.19,3.19-6.28c1.17,0.89,2.34,1.79,3.5,2.68c-0.01,0.71-0.01,1.41-0.02,2.12
			c-0.4,1.54-0.8,3.08-1.2,4.62c-0.73,0.13-1.45,0.26-2.18,0.39l-0.43-0.91C992.81,351.94,991.86,351.06,990.86,350.23z"/>
		<path class="st134" d="M997.54,348.75c0.11-0.71,0.11-1.41,0.01-2.12c1.12-0.27,2.25-0.46,3.39-0.57
			C999.81,346.96,998.67,347.86,997.54,348.75z"/>
		<path class="st151" d="M996.62,356.63c0.27,1.29,0.54,2.58,0.82,3.88c-1.27-1.22-2.55-2.44-3.82-3.66c0,0,0.75-0.73,0.75-0.73
			C995.12,356.29,995.87,356.46,996.62,356.63z"/>
		<path class="st152" d="M869.96,357.45c-0.67,9.75-8.68,3.73-12.86,5.96c-4.38-8.49-0.95-16.94,2.58-23.9
			c3.68-7.27,6.43,1.59,9.75,2.85C872.85,347.27,874.25,352.26,869.96,357.45z"/>
		<path class="st153" d="M900.69,360.42c-0.35,0.69-0.45,1.42-0.3,2.18c-4.78,5.07-10.76,1.82-16.19,2.3
			c-3.46-2.46-4.44-5.92-4.03-9.94c0.43-5.92,6.07-6.14,9.59-8.7c6.05-0.05,12.51-2.07,17.39,3.56c1.5,1.71,0.66,3.18-0.46,4.62
			c-1.13,1.28-2.54,2.29-3.74,3.5C902.16,358.73,901.41,359.56,900.69,360.42z"/>
		<path class="st154" d="M920.53,339.92c1.39,0.93,2.77,1.86,4.16,2.78c1.05,0.85,1.68,1.95,1.95,3.26
			c0.09,2.69-1.05,4.92-2.58,7.01c-1.01,1.44-2.01,2.91-2.71,4.55c-0.33,1.12-0.76,2.19-1.24,3.26c-0.64,0.99-1.51,1.74-2.54,2.3
			c-2.44,0.46-4.91,1.15-6.85-1.2c-3.39-7.53,1.63-13.63,3.45-20.27C915.5,338.09,918.22,339.76,920.53,339.92z"/>
		<path class="st155" d="M882.93,352.43c0.06,3.42,0.12,6.84,0.18,10.26c-1.27,2.32-2.82,2.53-4.68,0.65
			c-2.83-1.96-5.66-3.92-8.48-5.89c-0.17-5.03-0.35-10.06-0.52-15.09c0.88-0.46,1.8-0.78,2.78-0.95c3.76,1.37,5.4,4.95,7.96,7.57
			C881.16,350.08,882.07,351.23,882.93,352.43z"/>
		<path class="st156" d="M914.16,341.6c1.49,7.2-0.79,13.77-3.45,20.27c-2.13-0.67-4.27-1.34-6.4-2.01c-1.39-0.88-2-2.14-1.82-3.77
			c0.75-1.37,1.82-2.39,3.27-3c0.46-1.09,0.92-2.19,1.38-3.28C909.48,347.08,911.82,344.34,914.16,341.6z"/>
		<path class="st157" d="M880.05,353.12c-5.53-1.96-7.39-6.36-7.84-11.7c3.4-7.43,6.56-4.54,9.67,0.23
			C881.03,345.43,883.02,349.67,880.05,353.12z"/>
		<path class="st158" d="M878.44,363.34c1.56-0.22,3.12-0.43,4.68-0.65c5.76-0.03,11.51-0.06,17.27-0.09
			C893.3,369.71,885.92,368.12,878.44,363.34z"/>
		<path class="st159" d="M880.05,353.12c0.61-3.84,1.21-7.69,1.82-11.51c2.15,2.38,4.24,4.84,7.88,4.64
			c-2.28,2.06-4.55,4.12-6.83,6.18C882.04,352.96,881.08,353.19,880.05,353.12z"/>
		<path class="st160" d="M934.99,359.59c0.13,1.15,0.25,2.29,0.38,3.44c-3.26,0.21-6.51,0.42-9.77,0.62
			c-1.21-0.44-1.8-1.09-1.75-1.97c0.05-0.99,0.23-1.48,0.54-1.48c1.12-1.16,2.45-1.99,4-2.45
			C930.87,357.39,933.15,357.73,934.99,359.59z"/>
		<path class="st161" d="M903.38,356.72c0.28,1.06,0.58,2.1,0.93,3.14c-1.21,0.18-2.41,0.36-3.62,0.55c0.1-1.4,0.21-2.81,0.32-4.22
			l1.4-0.68L903.38,356.72z"/>
		<path class="st162" d="M924.68,360.13c0.3,1.17,0.61,2.35,0.92,3.53c-1.42-0.16-2.84-0.32-4.26-0.49c-0.5-0.53-1-1.06-1.5-1.59
			c0.27-0.67,0.55-1.34,0.83-2.01c0.7-0.17,1.41-0.34,2.12-0.51C923.42,359.42,924.05,359.77,924.68,360.13z"/>
		<path class="st163" d="M921.46,360.21c-0.1,0.99-0.14,1.97-0.12,2.96c-1.26-0.03-2.52-0.06-3.77-0.09
			c0.14-1.09,0.4-2.15,0.77-3.19C919.48,359,920.52,359.16,921.46,360.21z"/>
		<path class="st164" d="M1202.01,352.86c2.67,1.51,2.96,4.01,2.78,6.7c-4.05,3.64-8.76,4.61-14,3.42
			c-7.42-3.6-7.71-6.96,0.35-10.02C1194.76,352.92,1198.39,352.89,1202.01,352.86z"/>
		<path class="st165" d="M1246.82,346.84c1.37,0.97,2.74,1.95,4.11,2.92c-0.24,1.13-0.1,2.2,0.42,3.23
			c-1.9,4.31-3.81,3.65-5.75,0.03C1246.01,350.95,1246.41,348.89,1246.82,346.84z"/>
		<path class="st166" d="M1201.73,349.7c-1.06-0.97-2.12-1.93-3.17-2.9c1.07-0.46,2.18-0.65,3.34-0.58c0.88,1.28,0.83,2.48-0.3,3.6
			C1201.59,349.82,1201.73,349.7,1201.73,349.7z"/>
		<path class="st167" d="M1201.59,349.82c0.1-1.2,0.2-2.4,0.3-3.6c1.1,1.1,2.2,2.19,3.31,3.29
			C1203.99,349.61,1202.79,349.72,1201.59,349.82z"/>
		<path class="st168" d="M1156.61,360.52c-1.14-0.22-2.28-0.44-3.42-0.66c-0.37-2.95,0.53-5.23,3.39-6.5c0,0-0.05-0.04-0.05-0.04
			C1158.79,355.7,1158.57,358.1,1156.61,360.52z"/>
		<path class="st169" d="M1156.61,360.52c-0.03-2.4-0.06-4.8-0.09-7.19c1.3-0.18,2.6-0.36,3.9-0.54c0,0-0.19,0.65-0.19,0.65
			c0.72,0.7,0.96,1.39,0.7,2.06c-0.26,0.67-0.51,1.01-0.76,1.01c0,1.28,0,2.57,0,3.85C1159.14,363.82,1157.96,364.03,1156.61,360.52
			z"/>
		<path class="st170" d="M1160.17,356.51c-0.06-1.03-0.04-2.05,0.06-3.08c0.85,0.72,1.7,1.45,2.55,2.17
			C1161.9,355.9,1161.03,356.21,1160.17,356.51z"/>
		<path class="st171" d="M925.09,345.67c-0.02-1.01-0.15-2-0.4-2.97c8.91-6.34,18.69-2.6,28.17-2.45c-0.06,0.88-0.33,1.69-0.8,2.44
			c-1.11,0-2.13,0.29-3.07,0.86c-2.65-0.39-5.49-1.6-7.25,1.73c-2.97,4.93-7.47,4.98-12.35,3.88
			C927.61,348.43,926.18,347.26,925.09,345.67z"/>
		<path class="st172" d="M973.54,357.15c-1.32,1-2.63,2-3.95,3c-0.02-1.13,0.06-2.26,0.22-3.39
			C971.05,356.89,972.3,357.02,973.54,357.15z"/>
		<path class="st173" d="M928.2,346.67c4.51-0.46,9.02-0.92,13.53-1.39c0.8,5.59,0.43,10.53-6.57,11.79c-0.6-0.17-1.2-0.33-1.8-0.49
			c-1.13-0.57-2.15-1.29-3.09-2.15c-1.39-1.33-2.58-2.82-3.41-4.58C926.58,348.5,927.03,347.43,928.2,346.67z"/>
		<path class="st174" d="M934.99,359.59c-2.15,0.09-4.3,0.18-6.45,0.27c-0.98-1.24-0.93-2.47,0.01-3.71c2-1.42,3.89-1.31,5.66,0.41
			c0,0,0.94,0.51,0.94,0.52C935.04,357.91,934.99,358.75,934.99,359.59z"/>
		<path class="st175" d="M996.62,356.63c-0.78-0.04-1.53-0.21-2.26-0.51c-0.2-0.78-0.27-1.57-0.21-2.36
			c0.7-0.28,1.42-0.41,2.18-0.38C996.62,354.44,996.72,355.53,996.62,356.63z"/>
		<path class="st176" d="M990.86,350.23c0.95,0.87,1.91,1.75,2.86,2.62C992.77,351.98,991.82,351.11,990.86,350.23z"/>
		<path class="st177" d="M903.38,356.72c-0.82-0.05-1.62-0.22-2.38-0.52c0.43-2.8,2.28-3.43,4.76-3.11
			C904.97,354.3,904.18,355.51,903.38,356.72z"/>
		<path class="st178" d="M928.2,346.67c0.04,0.95,0.1,1.9,0.19,2.85c0.41,0.66,0.82,1.32,1.24,1.98c-0.23,0.74-0.46,1.48-0.69,2.23
			c-0.99,1.21-2.08,2.31-3.29,3.31c-0.71,0.33-1.42,0.65-2.14,0.97c-0.76-0.18-1.52-0.37-2.29-0.55c-0.46-0.63-0.92-1.27-1.38-1.91
			c0.43-0.66,0.85-1.32,1.28-1.97c1.33-2.64,2.66-5.27,3.98-7.91C926.12,346.02,927.16,346.36,928.2,346.67z"/>
		<path class="st179" d="M921.46,360.21c-1.05-0.07-2.09-0.17-3.13-0.32c-0.45-1.11-0.48-2.23-0.1-3.36l1.38-1.03l1.21,1.22
			l1.22-0.34c0.95,1.5,0.66,2.76-0.71,3.83L921.46,360.21z"/>
		<path class="st180" d="M920.82,356.72c-0.87-0.04-1.73-0.1-2.6-0.19c-0.5-2.4,0.79-3.07,2.88-2.95
			C921.34,354.65,921.24,355.7,920.82,356.72z"/>
		<path class="st181" d="M928.64,356.84c-0.35,1-0.38,2.01-0.09,3.02c-1.29,0.09-2.58,0.18-3.87,0.27c0,0-0.04,0.16-0.04,0.16
			c-0.83-0.84-1.09-1.66-0.79-2.47c0.3-0.8,0.6-1.2,0.88-1.2l0.04,0.03c0.67-0.47,1.34-0.93,2.01-1.4
			C927.4,355.77,928.02,356.3,928.64,356.84z"/>
		<path class="st182" d="M924.74,356.61c-0.03,1.22-0.06,2.45-0.1,3.67c0,0-1.65-0.14-1.65-0.14s-1.66,0.06-1.66,0.06
			c0.24-1.27,0.47-2.55,0.71-3.83C922.93,356.61,923.83,356.68,924.74,356.61z"/>
		<path class="st183" d="M934.22,356.56c-1.86,0.09-3.71,0.18-5.57,0.28c0,0-1.17-0.21-1.17-0.21c-0.43-1.29-0.15-2.43,0.74-3.43
			l-0.02,0.02c0.91-1.1,1.96-1.3,3.17-0.47C932.31,354.01,933.26,355.28,934.22,356.56z"/>
		<path class="st184" d="M931.36,352.74c-1.03,0.33-2.09,0.48-3.17,0.47c0.06-1.23,0.12-2.46,0.19-3.68
			C929.38,350.6,930.37,351.67,931.36,352.74z"/>
		<path class="st184" d="M928.22,353.19c-0.25,1.15-0.49,2.29-0.74,3.43c0,0-1.35,0.07-1.35,0.07s-1.35-0.05-1.35-0.05
			C925.92,355.5,927.07,354.34,928.22,353.19z"/>
	</g>
</g>
</svg>
