<?xml version="1.0" encoding="utf-8"?>
<!-- Generator: Adobe Illustrator 25.0.0, SVG Export Plug-In . SVG Version: 6.00 Build 0)  -->
<svg version="1.1" id="Layer_1" xmlns="http://www.w3.org/2000/svg" xmlns:xlink="http://www.w3.org/1999/xlink" x="0px" y="0px"
	 viewBox="0 0 1920 1080" style="enable-background:new 0 0 1920 1080;" xml:space="preserve">
<style type="text/css">
	.st0{fill:#FFFFFF;stroke:#000000;stroke-width:8.0857;stroke-miterlimit:10;}
	.st1{fill:#FFFFFF;stroke:#000000;stroke-width:4.8514;stroke-miterlimit:10;}
	.st2{fill:#FFFFFF;stroke:#000000;stroke-width:6.4686;stroke-miterlimit:10;}
</style>
<g>
	<path class="st0" d="M1120.61,906.61V783.96H994.68l-0.77-8.43V663.8c0-126.51-121.11-120.38-121.11-120.38l-114.08,0.91v485.98
		h243.76h118.8v-123.7H1120.61z"/>
	<path class="st0" d="M1122.95,1032H757.03V542.66l115.75-0.93c0.46-0.02,53.37-2.29,89.34,31.91
		c22.2,21.11,33.46,51.44,33.46,90.15v111.74l0.62,6.74h126.08v122.65h0.67V1032z M760.4,1028.64h359.19V908.29h-0.67V785.64H993.14
		l-0.91-9.95l-0.01-111.89c0-37.76-10.91-67.27-32.42-87.72c-34.94-33.21-86.41-31.01-86.93-30.98L760.4,546V1028.64z"/>
</g>
<g>
	<path class="st0" d="M1511.83,543.37H1264.7h-118.8v122.16v0.94v122.16h118.8v241.7h247.13V788.51c0.25,0,0.53,0.01,0.87,0.01
		c9.72,0,55.4-1.71,87.54-32.3c22.17-21.1,33.43-51.3,33.47-89.74h0.14v-123.1H1511.83z"/>
	<path class="st0" d="M1513.51,1032h-250.49V790.3h-118.8V541.7h491.31l-0.15,126.45c-0.35,38.13-11.78,68.15-33.97,89.28
		c-31.89,30.35-77.14,32.66-87.9,32.76V1032z M1266.39,1028.65h243.76V786.81l2.55,0.03c8.84,0,54.54-1.53,86.38-31.84
		c21.83-20.78,32.91-50.56,32.95-88.53l0.14-121.43h-484.58v241.91h118.8V1028.65z"/>
</g>
<g>
	<g>
		<path class="st0" d="M488.05,543.4h-3.16H363.1c0,117.48,104.66,122.49,121.79,122.52v118.42H363.1v125.11
			c0,127.95,124.16,120.79,124.16,120.79h0.01h244.36V543.4H488.05z"/>
	</g>
	<g>
		<path class="st0" d="M484.11,1032c-12.16,0-56.72-2.13-88.44-31.64c-22.76-21.17-34.3-51.76-34.3-90.91V782.64h121.79V667.61
			c-24.05-0.41-121.79-9.19-121.79-124.21v-1.7h371.99v490.24H487.27C487.21,1031.94,486.09,1032,484.11,1032z M364.82,786.04
			v123.41c0,38.17,11.17,67.93,33.21,88.43c35.81,33.32,88.6,30.68,89.12,30.66l242.75,0V545.1H364.83
			c0.98,113.14,100.11,119.08,120.06,119.12l1.72,0v121.82H364.82z"/>
	</g>
</g>
<g>
	<path class="st1" d="M1169.06,541.7"/>
</g>
<g>
	<g>
		<path class="st2" d="M1634.29,393.12c0,119.69-121.83,119.69-121.83,119.69s0,1.33-118.74,0S1271.9,393.12,1271.9,393.12V155.64
			c0,0,3.08-122.17,121.83-123.54c118.74-1.37,118.74,0,118.74,0s121.83,0,121.83,123.54V393.12z"/>
		<path class="st2" d="M1476.1,515.09c-17.69,0-43.8-0.16-82.4-0.59c-118.99-1.33-123.46-120.13-123.49-121.33V155.64
			c0.03-1.28,4.5-123.84,123.49-125.22c95.89-1.11,114.73-0.49,118.76,0.1v-0.1c1.23,0,123.51,1.43,123.51,125.22v237.48
			c0,119.99-122.27,121.38-123.51,121.38v-0.11C1510.06,514.73,1502.35,515.09,1476.1,515.09z M1477.24,33.17
			c-17.54,0-43.89,0.15-83.49,0.61c-115.78,1.34-120.14,120.7-120.17,121.9v237.44c0.03,1.12,4.45,116.72,120.17,118.01
			c91.86,1.03,112.46,0.46,117.04,0.18v-0.18l1.68,0c0.3,0,30.51-0.19,60.27-14.84c39.73-19.56,59.87-54.27,59.87-103.17V155.64
			c0-50.5-20.15-86.35-59.89-106.54c-29.75-15.12-59.96-15.31-60.26-15.31l-1.68,0V33.6C1508.19,33.43,1500.4,33.17,1477.24,33.17z"
			/>
	</g>
	<g>
		<path class="st2" d="M1476.73,514.65c-17.67,0-43.93-0.16-83.02-0.6c-118.57-1.33-123.02-119.71-123.05-120.9V155.64
			c0.03-1.26,4.49-123.41,123.05-124.78c97.92-1.13,115.38-0.46,118.76,0.07v-0.07c1.23,0,123.07,1.43,123.07,124.78v237.48
			c0,119.55-121.84,120.93-123.07,120.93v-0.07C1510.44,514.29,1503.32,514.65,1476.73,514.65z M1477.27,32.73
			c-17.55,0-43.91,0.15-83.53,0.61c-116.15,1.34-120.57,121.12-120.6,122.33v237.45c0.03,1.14,4.45,117.15,120.6,118.45
			c94.66,1.06,113.69,0.42,117.49,0.15v-0.15h1.24c1.21,0,120.59-1.4,120.59-118.45V155.64c0-120.85-119.38-122.3-120.59-122.3
			l-1.24-0.15C1509.03,33.02,1501.68,32.73,1477.27,32.73z"/>
		<path class="st2" d="M1476.73,516.33c-19.6,0-47.54-0.2-83.03-0.6c-120.33-1.35-124.69-121.33-124.72-122.54V155.64
			c0.03-1.29,4.31-125.07,124.71-126.46c71.09-0.82,110.93-0.82,118.45,0.01l0.33-0.01c1.25,0,124.75,1.45,124.75,126.46v237.48
			c0,121.21-123.5,122.61-124.75,122.61h-0.49C1508.03,516.14,1496.46,516.33,1476.73,516.33z M1477.27,34.41
			c-20.43,0-48.53,0.2-83.51,0.61c-114.62,1.33-118.91,119.5-118.94,120.69v237.41c0.03,1.11,4.42,115.49,118.94,116.77
			c85.95,0.96,109.47,0.51,115.78,0.24v-0.09l2.92-0.15c1.19,0,118.9-1.38,118.9-116.77V155.64c0-119.18-117.72-120.62-118.9-120.62
			l-1.45-0.17C1508.81,34.69,1501.38,34.41,1477.27,34.41z"/>
	</g>
</g>
<g>
	<g>
		<path class="st2" d="M1001.45,154.7c0-0.08,0.05-0.13,0.07-0.2c0.76-19.01,9.99-119.34,120.8-120.27
			c122.4-1.03,120.86,123.37,120.86,123.37l0,0v120.85v0.09V399.9v113.49H759.73V34.42h117.65c0.32,0,0.64-0.02,0.95-0.04
			C888.91,33.58,1001.45,31.8,1001.45,154.7z"/>
		<path class="st2" d="M1244.86,515.07H758.05V32.74h119.33c0.28,0,0.55-0.02,0.83-0.04c0.52-0.05,53.68-3.63,90.6,30.61
			c18.75,17.39,29.89,41.29,33.25,71.25c6.35-36.07,30.29-101.25,120.25-102c36.29-0.33,65.29,10.27,86.36,31.43
			c36.47,36.62,36.2,93.07,36.19,93.64V515.07z M761.41,511.71h480.09V157.6c0.01-0.57,0.25-55.66-35.24-91.26
			c-20.42-20.49-48.67-30.86-83.93-30.42c-108.93,0.91-118.35,99-119.13,118.66l-0.2,0.75l-1.28-0.62h-1.95
			c0-38.55-11.19-68.47-33.25-88.93c-35.86-33.25-87.54-29.76-88.06-29.72c-0.36,0.03-0.72,0.05-1.08,0.05H761.41V511.71z"/>
	</g>
	<g>
		<path class="st2" d="M1244.44,514.65H758.47V33.16h118.91c0.29,0,0.57-0.02,0.86-0.04c0.53-0.04,53.51-3.61,90.29,30.5
			c19.31,17.91,30.52,42.79,33.43,74.1c5.5-35.17,28.07-103.97,120.35-104.74c36-0.23,65.06,10.23,86.06,31.31
			c36.35,36.5,36.08,92.77,36.07,93.33V514.65z M760.99,512.13h480.93V157.6c0.01-0.57,0.25-55.82-35.35-91.55
			c-20.5-20.57-48.72-30.8-84.24-30.55c-109.32,0.92-118.76,99.34-119.55,119.06l-0.15,0.58l-0.91-0.43h-1.52
			c0-38.67-11.23-68.69-33.38-89.23c-35.99-33.38-87.87-29.88-88.39-29.84c-0.35,0.03-0.7,0.05-1.05,0.05H760.99V512.13z"/>
		<path class="st2" d="M1246.12,516.33H756.79V31.48h120.59c0.25,0,0.5-0.02,0.75-0.04c2.2-0.14,54.6-3.32,91.55,30.95
			c17.36,16.11,28.31,37.81,32.63,64.61c7.94-35,34.11-94.99,119.99-95.71c0.39,0,0.78,0,1.17,0c36.11,0,65.07,10.7,86.09,31.81
			c36.8,36.95,36.57,93.97,36.56,94.54V516.33z M762.67,510.45h477.56V157.6c0.01-0.57,0.18-55.2-34.86-90.37
			c-20.11-20.18-48.2-30.35-83.03-30.06c-107.79,0.9-117.11,97.99-117.88,117.44l-0.21,0.94l-0.52,1.95l-2.39-1.13h-2.83v-1.68
			c0-38.18-11.05-67.78-32.84-88c-35.39-32.82-86.6-29.43-87.12-29.4c-0.39,0.03-0.78,0.05-1.17,0.05H762.67V510.45z"/>
	</g>
</g>
<g>
	<g>
		<path class="st2" d="M610.15,271.67c0.08,0,0.13-0.05,0.2-0.07c19.01-0.76,119.34-9.99,120.27-120.8
			C731.64,28.4,607.25,29.94,607.25,29.94l0,0H486.39h-0.09H364.95h-2.31l2.31,483.45h365.48V395.74c0-0.32,0.02-0.64,0.04-0.95
			C731.27,384.21,733.05,271.67,610.15,271.67z"/>
		<path class="st2" d="M732.11,515.07H363.28l-2.33-486.81h246.3c0.59,0.03,57.01-0.26,93.61,36.2
			c21.16,21.08,31.74,50.13,31.43,86.36c-0.76,89.97-65.94,113.9-102.01,120.25c29.95,3.35,53.86,14.5,71.25,33.25
			c34.24,36.92,30.65,90.07,30.61,90.6c-0.02,0.28-0.04,0.55-0.04,0.82V515.07z M366.63,511.71h362.12V395.74
			c0-0.36,0.02-0.72,0.05-1.08c0.04-0.52,3.53-52.2-29.72-88.06c-20.46-22.06-50.38-33.25-88.93-33.25v-1.68l-0.64-1.54l0.45-0.17
			c19.98-0.83,118.07-10.24,118.98-119.18c0.3-35.28-9.94-63.52-30.43-83.93c-35.6-35.47-90.64-35.21-91.24-35.24H364.33
			L366.63,511.71z"/>
	</g>
	<g>
		<path class="st2" d="M731.69,514.65H363.7l-0.01-1.25l-2.32-484.72h245.88c0.63,0.04,56.83-0.27,93.32,36.07
			c21.08,21,31.62,49.95,31.31,86.06c-0.77,92.28-69.57,114.85-104.75,120.35c31.31,2.91,56.19,14.12,74.1,33.43
			c34.11,36.79,30.54,89.75,30.5,90.29c-0.02,0.28-0.04,0.57-0.04,0.86V514.65z M366.21,512.13h362.96V395.74
			c0-0.35,0.02-0.69,0.04-1.04c0.04-0.52,3.54-52.39-29.83-88.38c-20.54-22.15-50.56-33.39-89.23-33.39v-1.26l-0.44-1.16l0.34-0.13
			c19.97-0.82,118.39-10.27,119.31-119.58c0.3-35.41-9.99-63.75-30.57-84.25c-35.76-35.61-90.98-35.34-91.52-35.34H363.91
			L366.21,512.13z"/>
		<path class="st2" d="M733.37,516.33H362.03L359.68,27h247.56c6.17,0.08,59.54,1.74,94.51,36.56
			c21.41,21.33,32.11,50.69,31.81,87.27c-0.72,85.88-60.71,112.05-95.71,119.99c26.81,4.31,48.51,15.26,64.62,32.63
			c34.53,37.24,30.98,91.01,30.94,91.55c-0.02,0.24-0.03,0.49-0.03,0.73V516.33z M367.88,510.45h359.61V395.74
			c0-0.39,0.02-0.77,0.05-1.16c0.04-0.52,3.41-51.75-29.39-87.12c-20.21-21.8-49.82-32.85-88-32.85h-1.68v-2.63l-0.94-2.45
			l2.44-0.83c19.5-0.8,116.79-10.24,117.7-117.92c0.29-34.94-9.83-62.88-30.07-83.05c-34.91-34.77-87.97-34.86-90.33-34.85H365.6
			L367.88,510.45z"/>
	</g>
</g>
</svg>
