<?xml version="1.0" encoding="utf-8"?>
<!-- Generator: Adobe Illustrator 25.0.0, SVG Export Plug-In . SVG Version: 6.00 Build 0)  -->
<svg version="1.1" id="Layer_1" xmlns="http://www.w3.org/2000/svg" xmlns:xlink="http://www.w3.org/1999/xlink" x="0px" y="0px"
	 viewBox="0 0 841.89 595.28" style="enable-background:new 0 0 841.89 595.28;" xml:space="preserve">
<style type="text/css">
	.st0{fill:#C1457C;stroke:#FFFFFF;stroke-width:3.5357;stroke-miterlimit:10;}
	.st1{stroke:#FFFFFF;stroke-width:2.1214;stroke-miterlimit:10;}
	.st2{fill:#54BCE8;stroke:#FFFFFF;stroke-width:2.8286;stroke-miterlimit:10;}
	.st3{fill:#C1457C;stroke:#000000;stroke-width:3.9211;stroke-miterlimit:10;}
	.st4{stroke:#000000;stroke-width:2.3527;stroke-miterlimit:10;}
	.st5{fill:#54BCE8;stroke:#000000;stroke-width:3.1369;stroke-miterlimit:10;}
	.st6{fill:#333333;stroke:#FFFFFF;stroke-width:3.5729;stroke-miterlimit:10;}
	.st7{fill:#333333;stroke:#FFFFFF;stroke-width:2.1438;stroke-miterlimit:10;}
	.st8{fill:#333333;stroke:#FFFFFF;stroke-width:2.8584;stroke-miterlimit:10;}
	.st9{fill:#FFFFFF;stroke:#000000;stroke-width:3.6;stroke-miterlimit:10;}
	.st10{fill:#FFFFFF;stroke:#000000;stroke-width:2.16;stroke-miterlimit:10;}
	.st11{fill:#FFFFFF;stroke:#000000;stroke-width:2.88;stroke-miterlimit:10;}
	.st12{fill:#858585;stroke:#E7E7E7;stroke-width:3.6;stroke-miterlimit:10;}
	.st13{fill:#858585;stroke:#E7E7E7;stroke-width:2.16;stroke-miterlimit:10;}
	.st14{fill:#858585;stroke:#E7E7E7;stroke-width:2.88;stroke-miterlimit:10;}
</style>
<g>
	<g>
		<path class="st0" d="M466.74,456.14v-53.63h-55.07l-0.34-3.69v-48.86c0-55.32-52.96-52.64-52.96-52.64l-49.88,0.4v212.51h106.59
			h51.95v-54.09H466.74z"/>
		<path class="st0" d="M467.77,510.97H307.76V297l50.61-0.41c0.2-0.01,23.34-1,39.07,13.95c9.71,9.23,14.63,22.49,14.63,39.42v48.86
			l0.27,2.95h55.13v53.63h0.29V510.97z M309.23,509.5h157.07v-52.62H466v-53.63h-55l-0.4-4.35l0-48.93
			c0-16.51-4.77-29.41-14.18-38.36c-15.28-14.52-37.79-13.56-38.01-13.55l-49.19,0.4V509.5z"/>
	</g>
	<g>
		<path class="st0" d="M637.81,297.31H529.75H477.8v53.42v0.41v53.42h51.95v105.69h108.06V404.5c0.11,0,0.23,0,0.38,0
			c4.25,0,24.22-0.75,38.28-14.12c9.7-9.23,14.62-22.43,14.63-39.24h0.06v-53.83H637.81z"/>
		<path class="st0" d="M638.55,510.97H529.01V405.28h-51.95V296.57h214.84l-0.07,55.29c-0.16,16.67-5.15,29.8-14.86,39.04
			c-13.94,13.27-33.73,14.28-38.44,14.33V510.97z M530.49,509.51h106.59V403.76l1.12,0.01c3.86,0,23.85-0.67,37.77-13.92
			c9.54-9.08,14.39-22.11,14.41-38.71l0.06-53.1h-211.9v105.78h51.95V509.51z"/>
	</g>
	<g>
		<g>
			<path class="st0" d="M190.13,297.32h-1.38h-53.26c0,51.37,45.76,53.56,53.26,53.58v51.78h-53.26v54.71
				c0,55.95,54.29,52.82,54.29,52.82h0h106.85V297.32H190.13z"/>
		</g>
		<g>
			<path class="st0" d="M188.41,510.97c-5.32,0-24.8-0.93-38.67-13.84c-9.95-9.26-15-22.63-15-39.75v-55.45H188v-50.3
				c-10.52-0.18-53.26-4.02-53.26-54.31v-0.74H297.4v214.37H189.79C189.77,510.95,189.28,510.97,188.41,510.97z M136.25,403.42
				v53.96c0,16.69,4.89,29.7,14.52,38.67c15.66,14.57,38.74,13.42,38.97,13.41l106.15,0v-211.4H136.25
				c0.43,49.47,43.78,52.07,52.5,52.09l0.75,0v53.27H136.25z"/>
		</g>
	</g>
	<g>
		<g>
			<path class="st2" d="M691.36,231.6c0,52.34-53.27,52.34-53.27,52.34s0,0.58-51.92,0S532.9,231.6,532.9,231.6V127.76
				c0,0,1.35-53.42,53.27-54.02s51.92,0,51.92,0s53.27,0,53.27,54.02V231.6z"/>
			<path class="st2" d="M622.19,284.94c-7.74,0-19.15-0.07-36.03-0.26c-52.03-0.58-53.98-52.53-54-53.06V127.76
				c0.01-0.56,1.97-54.15,54-54.76c41.93-0.48,50.17-0.21,51.93,0.04V73c0.54,0,54.01,0.63,54.01,54.76V231.6
				c0,52.47-53.47,53.07-54.01,53.07v-0.05C637.04,284.78,633.67,284.94,622.19,284.94z M622.69,74.2c-7.67,0-19.19,0.07-36.51,0.27
				c-50.63,0.59-52.53,52.78-52.55,53.3V231.6c0.01,0.49,1.95,51.04,52.55,51.6c40.17,0.45,49.18,0.2,51.18,0.08v-0.08l0.74,0
				c0.13,0,13.34-0.08,26.36-6.49c17.37-8.55,26.18-23.73,26.18-45.12V127.76c0-22.08-8.81-37.76-26.19-46.59
				c-13.01-6.61-26.22-6.7-26.35-6.7l-0.74,0v-0.08C636.22,74.32,632.82,74.2,622.69,74.2z"/>
		</g>
		<g>
			<path class="st2" d="M622.46,284.75c-7.73,0-19.21-0.07-36.3-0.26c-51.85-0.58-53.8-52.34-53.81-52.87V127.76
				c0.01-0.55,1.96-53.97,53.81-54.56c42.82-0.49,50.45-0.2,51.93,0.03v-0.03c0.54,0,53.82,0.62,53.82,54.56V231.6
				c0,52.28-53.28,52.88-53.82,52.88v-0.03C637.2,284.59,634.09,284.75,622.46,284.75z M622.7,74.01c-7.67,0-19.2,0.07-36.52,0.27
				c-50.79,0.59-52.72,52.96-52.74,53.49V231.6c0.01,0.5,1.95,51.23,52.74,51.8c41.39,0.46,49.72,0.18,51.37,0.07v-0.07h0.54
				c0.53,0,52.73-0.61,52.73-51.8V127.76c0-52.84-52.2-53.48-52.73-53.48l-0.54-0.07C636.59,74.14,633.37,74.01,622.7,74.01z"/>
			<path class="st2" d="M622.46,285.48c-8.57,0-20.79-0.09-36.31-0.26c-52.62-0.59-54.52-53.05-54.54-53.58V127.76
				c0.01-0.56,1.89-54.69,54.53-55.3c31.09-0.36,48.51-0.36,51.8,0.01l0.14-0.01c0.55,0,54.55,0.63,54.55,55.3V231.6
				c0,53-54,53.62-54.55,53.62h-0.21C636.15,285.4,631.09,285.48,622.46,285.48z M622.7,74.75c-8.93,0-21.22,0.09-36.52,0.27
				c-50.12,0.58-52,52.25-52.01,52.78V231.6c0.01,0.49,1.93,50.5,52.01,51.06c37.58,0.42,47.87,0.22,50.63,0.1v-0.04l1.28-0.07
				c0.52,0,51.99-0.6,51.99-51.06V127.76c0-52.11-51.47-52.74-51.99-52.74l-0.63-0.07C636.49,74.87,633.24,74.75,622.7,74.75z"/>
		</g>
	</g>
	<g>
		<g>
			<path class="st2" d="M414.63,127.35c0-0.03,0.02-0.06,0.03-0.09c0.33-8.31,4.37-52.19,52.82-52.59
				c53.52-0.45,52.85,53.95,52.85,53.95l0,0v52.85v0.04v53.06v49.63h-211.4V74.75h51.45c0.14,0,0.28-0.01,0.42-0.02
				C365.42,74.38,414.63,73.61,414.63,127.35z"/>
			<path class="st2" d="M521.07,284.93H308.2V74.01h52.18c0.12,0,0.24-0.01,0.36-0.02c0.23-0.02,23.47-1.59,39.62,13.39
				c8.2,7.6,13.07,18.06,14.54,31.16c2.78-15.77,13.24-44.27,52.58-44.6c15.87-0.14,28.55,4.49,37.76,13.74
				c15.95,16.01,15.83,40.7,15.83,40.95V284.93z M309.67,283.46H519.6V128.62c0-0.25,0.11-24.34-15.41-39.91
				c-8.93-8.96-21.28-13.49-36.7-13.3c-47.63,0.4-51.75,43.29-52.09,51.89l-0.09,0.33l-0.56-0.27h-0.85
				c0-16.86-4.89-29.94-14.54-38.89c-15.68-14.54-38.28-13.01-38.51-13c-0.16,0.01-0.31,0.02-0.47,0.02h-50.71V283.46z"/>
		</g>
		<g>
			<path class="st2" d="M520.89,284.75H308.38V74.2h52c0.13,0,0.25-0.01,0.38-0.02c0.23-0.02,23.4-1.58,39.48,13.34
				c8.45,7.83,13.35,18.71,14.62,32.4c2.41-15.38,12.27-45.46,52.63-45.8c15.74-0.1,28.45,4.47,37.63,13.69
				c15.9,15.96,15.78,40.57,15.77,40.81V284.75z M309.49,283.64h210.3V128.62c0-0.25,0.11-24.41-15.46-40.03
				c-8.96-8.99-21.31-13.47-36.84-13.36c-47.8,0.4-51.93,43.44-52.28,52.06l-0.07,0.25l-0.4-0.19h-0.67
				c0-16.91-4.91-30.04-14.6-39.02c-15.74-14.6-38.42-13.07-38.65-13.05c-0.15,0.01-0.31,0.02-0.46,0.02h-50.89V283.64z"/>
			<path class="st2" d="M521.62,285.48H307.65V73.46h52.73c0.11,0,0.22-0.01,0.33-0.02c0.96-0.06,23.87-1.45,40.03,13.53
				c7.59,7.04,12.38,16.53,14.27,28.25c3.47-15.3,14.92-41.54,52.47-41.85c0.17,0,0.34,0,0.51,0c15.79,0,28.45,4.68,37.65,13.91
				c16.09,16.16,15.99,41.09,15.99,41.34V285.48z M310.22,282.91h208.83V128.62c0-0.25,0.08-24.14-15.25-39.52
				c-8.8-8.83-21.08-13.27-36.31-13.14c-47.13,0.39-51.21,42.85-51.55,51.36l-0.09,0.41l-0.23,0.85l-1.04-0.5h-1.24v-0.74
				c0-16.7-4.83-29.64-14.36-38.48C383.51,74.52,361.12,76,360.89,76.02c-0.17,0.01-0.34,0.02-0.51,0.02h-50.16V282.91z"/>
		</g>
	</g>
	<g>
		<g>
			<path class="st2" d="M243.53,178.49c0.03,0,0.06-0.02,0.09-0.03c8.31-0.33,52.19-4.37,52.59-52.82
				c0.45-53.52-53.95-52.85-53.95-52.85l0,0h-52.85h-0.04h-53.06h-1.01l1.01,211.4h159.82v-51.45c0-0.14,0.01-0.28,0.02-0.42
				C296.49,227.71,297.27,178.49,243.53,178.49z"/>
			<path class="st2" d="M296.86,284.93H135.58l-1.02-212.87h107.7c0.26,0.01,24.93-0.12,40.94,15.83
				c9.25,9.22,13.88,21.92,13.75,37.76c-0.33,39.34-28.83,49.81-44.61,52.58c13.1,1.47,23.55,6.34,31.16,14.54
				c14.97,16.15,13.4,39.39,13.39,39.62c-0.01,0.12-0.02,0.24-0.02,0.36V284.93z M137.04,283.46h158.35v-50.71
				c0-0.16,0.01-0.32,0.02-0.47c0.02-0.23,1.54-22.83-13-38.51c-8.95-9.65-22.03-14.54-38.89-14.54v-0.74l-0.28-0.67l0.2-0.07
				c8.74-0.36,51.63-4.48,52.03-52.11c0.13-15.43-4.35-27.77-13.3-36.7c-15.57-15.51-39.63-15.4-39.9-15.41H136.03L137.04,283.46z"
				/>
		</g>
		<g>
			<path class="st2" d="M296.67,284.75H135.76l0-0.55l-1.01-211.96h107.52c0.27,0.02,24.85-0.12,40.81,15.77
				c9.22,9.18,13.82,21.84,13.69,37.63c-0.34,40.35-30.42,50.22-45.8,52.63c13.69,1.27,24.57,6.17,32.4,14.62
				c14.92,16.09,13.35,39.25,13.34,39.48c-0.01,0.12-0.02,0.25-0.02,0.37V284.75z M136.86,283.64h158.72v-50.89
				c0-0.15,0.01-0.3,0.02-0.46c0.02-0.23,1.55-22.91-13.05-38.65c-8.98-9.69-22.11-14.6-39.02-14.6v-0.55l-0.19-0.51l0.15-0.06
				c8.73-0.36,51.77-4.49,52.17-52.29c0.13-15.48-4.37-27.88-13.37-36.84c-15.64-15.57-39.78-15.45-40.02-15.45H135.85
				L136.86,283.64z"/>
			<path class="st2" d="M297.41,285.48H135.03L134,71.51h108.26c2.7,0.03,26.04,0.76,41.33,15.99c9.36,9.33,14.04,22.17,13.91,38.16
				c-0.32,37.55-26.55,49-41.85,52.47c11.72,1.89,21.21,6.68,28.26,14.27c15.1,16.29,13.55,39.8,13.53,40.03
				c-0.01,0.11-0.01,0.21-0.01,0.32V285.48z M137.59,282.91h157.25v-50.16c0-0.17,0.01-0.34,0.02-0.51
				c0.02-0.23,1.49-22.63-12.85-38.1c-8.84-9.53-21.78-14.36-38.48-14.36h-0.74v-1.15l-0.41-1.07l1.07-0.36
				c8.53-0.35,51.07-4.48,51.47-51.56c0.13-15.28-4.3-27.49-13.15-36.32c-15.27-15.2-38.47-15.24-39.5-15.24H136.59L137.59,282.91z"
				/>
		</g>
	</g>
</g>
</svg>
