<?xml version="1.0" encoding="utf-8"?>
<!-- Generator: Adobe Illustrator 25.0.0, SVG Export Plug-In . SVG Version: 6.00 Build 0)  -->
<svg version="1.1" id="Layer_1" xmlns="http://www.w3.org/2000/svg" xmlns:xlink="http://www.w3.org/1999/xlink" x="0px" y="0px"
	 viewBox="0 0 1920 1080" style="enable-background:new 0 0 1920 1080;" xml:space="preserve">
<style type="text/css">
	.st0{fill:#FFFFFF;}
</style>
<g>
	<path class="st0" d="M309.79,729.15c0-36.99,0-73.95,0-111.14c13.05,0,26.06,0,39.37,0c1.97-15.22,3.91-30.25,5.89-45.59
		c-15.11,0-30,0-45.18,0c0-1.86-0.01-3.44,0-5.03c0.08-9.49-0.11-18.99,0.31-28.46c0.49-10.95,6.27-16.73,17.3-17.33
		c8.42-0.45,16.88-0.25,25.32-0.33c1.04-0.01,2.09,0,3.33,0c0-13.55,0-26.96,0-40.65c-3.05-0.26-6.15-0.69-9.27-0.77
		c-10.73-0.28-21.5-1.08-32.19-0.51c-16.31,0.88-30.3,7.23-40.39,20.63c-7.05,9.38-10.47,20.21-10.96,31.78
		c-0.52,12.61-0.32,25.25-0.44,37.88c-0.01,0.83,0,1.66,0,2.78c-13.09,0-26.02,0-39.07,0c0,15.27,0,30.25,0,45.53
		c12.97,0,25.9,0,38.96,0c0,38.85,0,77.4,0,115.95c-74.3-1.43-150.05-58.99-159.76-148.31c-10.05-92.48,55.55-174.3,147.62-184.55
		c92.27-10.27,172.04,55.1,184.22,142.58C447.7,635.85,385.2,711.33,309.79,729.15z"/>
</g>
<g>
	<path class="st0" d="M711.27,386.34c99.69,0.9,179.76,79.81,179.9,179.9c0.14,99.87-79.65,180.05-179.78,180.13
		c-99.99,0.07-180.01-79.85-180.04-179.84C531.33,466.58,611.22,387.25,711.27,386.34z M632.72,588.19c-7.51,2-14.79,1.58-22.7,0.76
		c8.84,22.89,25.06,35.03,49.36,37.51c-23.34,17.32-48.86,24.29-77.13,22.13c0.59,0.75,1.23,1.26,1.91,1.68
		c14.48,8.88,30.06,15.07,46.65,18.65c19.31,4.17,38.78,4.6,58.26,1.5c19.48-3.1,37.77-9.65,54.53-20.16
		c13.48-8.44,25.26-18.8,35.38-31.12c11.22-13.67,19.97-28.77,26.14-45.27c7-18.73,10.47-38.16,9.95-58.23
		c-0.03-1.17,0.84-2.62,1.73-3.5c6.38-6.32,12.95-12.45,19.28-18.82c1.87-1.89,3.16-4.36,4.89-6.82
		c-9.65,2.65-18.83,5.16-28.01,7.68c-0.12-0.31-0.23-0.61-0.35-0.92c10.06-7.01,17.54-15.96,21.67-28.56
		c-1.61,0.69-2.48,0.97-3.26,1.4c-8.84,4.92-18.21,8.39-28.07,10.62c-1.74,0.4-2.87,0.26-4.29-1.05
		c-14.96-13.78-32.44-18.47-52.06-13.02c-24.97,6.93-41.17,30.89-38.5,56.88c0.21,2.06,0.53,4.11,0.86,6.59
		c-44.53-3.17-80.84-21.87-110.03-56.13c-12.98,28.1-7.76,51.4,15.12,71.26c-8.23-0.01-15.23-3.04-22.29-6.1
		C590.45,553.82,602.78,579.78,632.72,588.19z"/>
</g>
<g>
	<path class="st0" d="M1148.59,394.18c98.11-0.29,179.55,80.81,177.38,181.58c-2.08,96.31-82.06,175.7-181.73,173.47
		c-95.93-2.15-173.6-80.99-173.38-177.82C971.09,473.32,1050.33,394.18,1148.59,394.18z M1250.65,571.85c-0.17,0-0.33-0.01-0.5-0.01
		c0-9.67,0.21-19.35-0.06-29.02c-0.23-8.16-0.55-16.36-1.64-24.44c-3.38-25.15-21.52-43.46-46.66-46.68
		c-10.8-1.38-21.78-1.67-32.68-1.84c-16.51-0.26-33.03-0.14-49.55,0.15c-8.23,0.15-16.52,0.56-24.67,1.66
		c-24.94,3.37-43.28,21.64-46.45,46.63c-1.35,10.65-1.67,21.46-1.83,32.21c-0.26,16.51-0.14,33.03,0.15,49.55
		c0.14,8.31,0.57,16.67,1.64,24.91c3.26,24.95,21.48,43.43,46.41,46.66c10.72,1.39,21.62,1.7,32.44,1.87
		c16.67,0.26,33.35,0.14,50.02-0.15c8.23-0.14,16.52-0.57,24.67-1.68c12.65-1.72,23.69-7.08,32.52-16.56
		c9.92-10.65,14.21-23.61,14.92-37.78C1250.12,602.19,1250.25,587.02,1250.65,571.85z"/>
	<path class="st0" d="M1148.44,655.51c-13.6-0.25-27.21-0.29-40.8-0.83c-5.45-0.22-11.03-0.94-16.25-2.47
		c-14.98-4.37-22.93-15.13-25.01-30.2c-1.03-7.45-1.38-15.04-1.39-22.56c-0.03-23.35,0.12-46.71,0.52-70.06
		c0.08-4.96,0.99-10.06,2.4-14.83c4.09-13.83,13.72-22.11,27.76-24.39c9.1-1.48,18.45-1.82,27.7-1.95
		c18.48-0.26,36.97-0.22,55.45,0.08c7.75,0.12,15.63,0.51,23.2,2.01c16.22,3.22,26.49,14.6,28.45,31.05
		c1.01,8.49,1.37,17.08,1.45,25.63c0.19,18.32,0.23,36.66-0.11,54.98c-0.15,8.05-0.61,16.25-2.25,24.1
		c-3.29,15.75-14.84,25.91-30.94,27.68c-9.04,0.99-18.18,1.19-27.29,1.46c-7.62,0.23-15.26,0.05-22.89,0.05
		C1148.44,655.34,1148.44,655.43,1148.44,655.51z M1200.74,571.07c-0.2-28.55-23.99-51.83-52.83-51.7
		c-28.67,0.13-51.95,23.91-51.82,52.95c0.12,28.49,23.98,51.84,52.83,51.7C1177.57,623.89,1200.94,600,1200.74,571.07z
		 M1202.96,505.13c-6.71-0.04-12.23,5.36-12.29,12.03c-0.06,6.68,5.33,12.18,12.05,12.28c6.65,0.1,12.23-5.37,12.28-12.03
		C1215.03,510.7,1209.61,505.17,1202.96,505.13z"/>
	<path class="st0" d="M1148.46,537.7c19.01,0,33.96,15.09,33.95,34.27c-0.01,18.79-15.19,33.72-34.27,33.71
		c-18.88-0.01-33.73-15.21-33.71-34.51C1114.45,552.71,1129.71,537.7,1148.46,537.7z"/>
</g>
<g>
	<path class="st0" d="M1599.43,749.27c-90.14,0.45-169.83-69.39-175.89-166.16c-6.3-100.64,68.7-181.56,162.28-188.46
		c101.77-7.5,180.09,69.75,188.41,160.53C1783.88,660.47,1701.61,749.49,1599.43,749.27z M1598.92,407.6
		c-88.83-0.51-165.6,74.03-162.28,170.11c3.08,89.21,76.01,157.65,161.62,158.14c89.59,0.52,166.19-73.87,163.28-168.83
		C1758.78,476.81,1686.18,407.03,1598.92,407.6z"/>
	<path class="st0" d="M1597.51,500.97c27.25,0.95,52.28,1.81,77.3,2.71c16.84,0.61,27.42,9.51,30.47,26.07
		c1.34,7.29,2.37,14.72,2.68,22.12c0.97,23.14,1.37,46.3-1.31,69.37c-1.06,9.09-3.16,17.94-9.64,25.01
		c-5.01,5.46-11.55,7.81-18.66,8.22c-16.73,0.97-33.49,2.19-50.24,2.25c-31.89,0.11-63.78-0.37-95.67-0.96
		c-7.26-0.13-14.61-1.2-21.71-2.78c-9.6-2.14-15.66-8.52-18.81-17.93c-3.46-10.35-4.06-21.08-4.65-31.78
		c-1.19-21.73-1-43.48,1.5-65.1c0.75-6.46,2.66-13,5.28-18.97c4.83-11.04,14.77-14.83,25.98-15.32
		C1546.58,502.71,1573.14,501.87,1597.51,500.97z M1639.75,576.14c-1.58-0.98-2.43-1.57-3.33-2.06
		c-19.25-10.57-38.5-21.13-57.76-31.68c-4.06-2.23-4.55-1.93-4.55,2.72c-0.02,20.92-0.02,41.84,0,62.76c0,1.12,0.15,2.23,0.27,4.05
		C1596.29,599.92,1617.67,588.22,1639.75,576.14z"/>
</g>
</svg>
